<?xml version="1.0" standalone="no"?>
<!DOCTYPE svg PUBLIC "-//W3C//DTD SVG 1.1//EN" "http://www.w3.org/Graphics/SVG/1.1/DTD/svg11.dtd" >
<!--
2013-9-30: Created.
-->
<svg>
<metadata>
Created by iconfont
</metadata>
<defs>

<font id="iconfont" horiz-adv-x="1024" >
  <font-face
    font-family="iconfont"
    font-weight="500"
    font-stretch="normal"
    units-per-em="1024"
    ascent="896"
    descent="-128"
  />
    <missing-glyph />
    
    <glyph glyph-name="bofanganniu" unicode="&#59056;" d="M512 384m-512 0a512 512 0 1 1 1024 0 512 512 0 1 1-1024 0ZM714.58 384L444.67 228.16V539.84L714.58 384z"  horiz-adv-x="1024" />

    
    <glyph glyph-name="bofang" unicode="&#59055;" d="M857.694629 337.200732l-623.190318-453.992946c-38.299405-27.899567-91.998571-0.499992-91.99857 46.799273V837.992951c0 47.299265 53.699166 74.698839 91.99857 46.799273l623.190318-453.992946c31.799506-23.099641 31.799506-70.498905 0-93.598546z"  horiz-adv-x="1024" />

    
    <glyph glyph-name="biaoji" unicode="&#59052;" d="M73.1-128C32.8-128 0-95.2 0-54.9c0 40.4 32.8 73.1 73.1 73.1 40.4 0 73.1-32.8 73.1-73.1 0.1-40.3-32.7-73.1-73.1-73.1zM73.1 310.9C32.8 310.9 0 343.6 0 384c0 40.4 32.8 73.1 73.1 73.1 40.4 0 73.1-32.8 73.1-73.1 0.1-40.4-32.7-73.1-73.1-73.1zM73.1 749.7C32.8 749.7 0 782.5 0 822.9 0 863.2 32.8 896 73.1 896c40.4 0 73.1-32.8 73.1-73.1 0.1-40.4-32.7-73.2-73.1-73.2zM950.9-128H365.7c-40.4 0-73.1 32.8-73.1 73.1 0 40.4 32.8 73.1 73.1 73.1h585.1c40.4 0 73.1-32.8 73.1-73.1 0.1-40.3-32.7-73.1-73-73.1zM950.9 310.9H365.7c-40.4 0-73.1 32.8-73.1 73.1 0 40.4 32.8 73.1 73.1 73.1h585.1c40.4 0 73.1-32.8 73.1-73.1 0.1-40.4-32.7-73.1-73-73.1zM950.9 749.7H365.7c-40.4 0-73.1 32.8-73.1 73.1 0 40.4 32.8 73.1 73.1 73.1h585.1c40.4 0 73.1-32.8 73.1-73.1 0.1-40.3-32.7-73.1-73-73.1z"  horiz-adv-x="1024" />

    
    <glyph glyph-name="daohang-APPguanli" unicode="&#59051;" d="M512.7 29.6m-57.3 0a57.3 57.3 0 1 1 114.6 0 57.3 57.3 0 1 1-114.6 0ZM824.7 896H199.3c-40 0-72.5-29.7-72.5-66.2v-891.5c0-36.5 32.5-66.2 72.5-66.2h625.4c40 0 72.5 29.7 72.5 66.2V829.8c0 36.5-32.5 66.2-72.5 66.2z m-2.5-775.1V-30c0-16.1-14.5-29.3-32.4-29.3H234.3c-17.9 0-32.4 13.1-32.4 29.3V120.9h620.3z m0 677v-608.2H201.8V797.9c0 16.1 14.5 29.3 32.4 29.3h555.4c18 0 32.6-13.1 32.6-29.3z"  horiz-adv-x="1024" />

    
    <glyph glyph-name="daohang-shangbaoguanli" unicode="&#59050;" d="M1009.32037 88.9L605.92037 787.6C585.02037 823.8 548.52037 841.8 512.02037 841.8c-36.5 0-73.1-18.1-93.9-54.2L14.72037 88.9c-41.8-72.3 10.4-162.7 93.9-162.7h806.7c83.6 0 135.8 90.4 94 162.7z m-58.7-74.6c-3.5-6.1-14-20.3-35.2-20.3H108.62037c-21.2 0-31.7 14.2-35.2 20.3-3.5 6.1-10.6 22.3 0 40.6l403.4 698.7C487.42037 772 504.92037 774 512.02037 774s24.6-2 35.2-20.3L950.62037 55c10.6-18.3 3.5-34.5 0-40.7zM512.02037 153c-29 0-52.5-23.5-52.5-52.5S483.02037 48 512.02037 48s52.5 23.5 52.5 52.5S541.02037 153 512.02037 153zM512.02037 618.1c-29 0-52.5-23.5-52.5-52.5v-335.1c0-29 23.5-52.5 52.5-52.5s52.5 23.5 52.5 52.5V565.6c0 29-23.5 52.5-52.5 52.5z"  horiz-adv-x="1024" />

    
    <glyph glyph-name="daohang-renyuanguiji" unicode="&#59049;" d="M781.5 423.6h-539c-86.6 0-157.1 70.5-157.1 157s70.5 157 157.1 157h545.4c16.4-45.9 59.8-79 111.3-79 65.4 0 118.6 53.2 118.6 118.6S964.6 896 899.2 896c-51.5 0-94.9-33.1-111.3-79H242.5C112.2 817 6.2 711 6.2 580.7s106-236.3 236.3-236.3h539.1c86.6 0 157.1-70.5 157.1-157s-70.5-157-157.1-157H236.1c-16.4 45.9-59.8 79-111.3 79-65.4 0-118.6-53.2-118.6-118.6 0-65.4 53.2-118.6 118.6-118.6 51.5 0 94.9 33.1 111.3 79h545.4c130.3 0 236.3 106 236.3 236.3s-106 236.1-236.3 236.1zM899.2 816.7c21.7 0 39.4-17.7 39.4-39.4S920.9 738 899.2 738s-39.4 17.7-39.4 39.4 17.7 39.3 39.4 39.3zM124.8-48.7c-21.7 0-39.4 17.7-39.4 39.4s17.7 39.4 39.4 39.4 39.4-17.7 39.4-39.4c0-21.8-17.7-39.4-39.4-39.4z"  horiz-adv-x="1024" />

    
    <glyph glyph-name="daohang-renwuleixingguanli" unicode="&#59048;" d="M607.290694 511.437555L360.014842 264.161703 248.325749 375.850796c-14.198613 14.198613-37.196368 14.198613-51.394981 0-14.198613-14.198613-14.198613-37.196368 0-51.394981L334.017381 187.369202c7.199297-7.199297 16.498389-10.698955 25.897471-10.598965 9.399082-0.09999 18.798164 3.399668 25.997461 10.598965L658.685675 460.042574c14.198613 14.198613 14.198613 37.196368 0 51.394981-14.198613 14.198613-37.196368 14.198613-51.394981 0zM90.641148-3.712137c-6.199395 0-11.198906 4.999512-11.198906 11.198906V741.215116c0 6.199395 4.999512 11.198906 11.198906 11.198906h134.586857v-23.297725c0-25.69749 20.897959-46.59545 46.59545-46.595449h311.969534c25.69749 0 46.59545 20.897959 46.59545 46.595449v23.297725H764.975295c6.199395 0 11.198906-4.999512 11.198907-11.198906v-394.361488c10.798945 1.299873 21.797871 2.199785 32.896787 2.199785 11.898838 0 23.597696-0.999902 35.096573-2.499756V741.215116c0 43.695733-35.496534 79.192266-79.192267 79.192266H630.388439v28.997168c0 25.69749-20.897959 46.59545-46.59545 46.59545h-311.969534c-25.69749 0-46.59545-20.897959-46.59545-46.59545v-28.897178H90.641148c-43.695733 0-79.192266-35.496534-79.192266-79.192266v-733.828337c0-43.695733 35.496534-79.192266 79.192266-79.192267h488.252319c-13.398692 20.897959-24.197637 43.695733-31.596914 68.093351H90.641148zM293.221365 827.90665h269.073723v-77.392442H293.221365V827.90665zM978.754419 75.080168c0 20.597988 14.498584 37.696319 33.796699 41.795918-4.499561 22.497803-12.79875 44.095694-24.497608 63.893761-6.999316-4.699541-15.198516-7.099307-23.597695-7.099307-23.597696 0-42.69583 19.098135-42.695831 42.69583 0 9.799043 3.399668 19.398106 9.599063 26.997364-23.397715 17.09833-50.395079 29.397129-79.792208 35.496534-3.299678-20.198028-20.897959-35.696514-42.095889-35.696514-21.29792 0-38.896202 15.498486-42.095889 35.896494-29.497119-5.999414-56.694463-18.198223-80.092178-35.296553 6.299385-7.399277 9.999024-16.99834 9.999023-27.497315 0-23.597696-19.098135-42.69583-42.69583-42.69583-8.69915 0-17.19832 2.699736-24.397618 7.599258-11.798848-19.898057-20.098037-41.595938-24.697588-64.193731 19.798067-3.699639 34.896592-21.09794 34.896592-41.995899 0-20.797969-14.898545-38.19627-34.696611-41.895909 5.099502-24.597598 14.698565-48.095303 28.297236-69.293233 6.299385 3.499658 13.398692 5.299482 20.597989 5.299483 23.597696 0 42.69583-19.098135 42.69583-42.695831 0-7.699248-2.099795-15.298506-5.999414-21.897862 22.697783-15.598477 48.595254-26.897373 76.49253-32.496826 4.0996 19.298115 21.19793 33.89669 41.795918 33.89669 20.497998 0 37.596328-14.398594 41.695928-33.596719 27.897276 5.799434 53.694756 17.09833 76.29255 32.796797-3.599648 6.299385-5.699443 13.598672-5.699443 21.39791 0 23.597696 19.098135 42.69583 42.69583 42.695831 6.899326 0 13.698662-1.699834 19.798067-4.899522 13.498682 21.09794 22.997754 44.495655 27.997266 69.093253-19.198125 4.19959-33.596719 21.29792-33.596719 41.695928z m-169.68343-90.591153c-50.295088 0-91.191095 40.796016-91.191094 91.191094 0 50.395079 40.796016 91.191095 91.191094 91.191095 50.395079 0 91.191095-40.796016 91.191095-91.191095-0.09999-50.395079-40.896006-91.191095-91.191095-91.191094z"  horiz-adv-x="1024" />

    
    <glyph glyph-name="daohang-shangbaoleixingguanli" unicode="&#59047;" d="M104.1 63.5c-20.3 0-30.3 13.6-33.7 19.5-3.4 5.9-10.1 21.4 0 38.9l386.4 669.3c10.1 17.6 27 19.5 33.7 19.5 6.8 0 23.6-1.9 33.7-19.5l252.2-436.8c15.8 2.9 31.9 4.6 48.5 4.6 8.3 0 16.4-0.5 24.5-1.2l-269 465.9c-20 34.6-55 52-90 52s-70-17.3-90-52L14.1 154.4c-40-69.3 10-155.9 90-155.9h470.2c-7.7 20.6-13.1 42.3-15.5 65H104.1zM490.5 215.8c-27.8 0-50.3-22.5-50.3-50.3 0-27.8 22.5-50.3 50.3-50.3 27.8 0 50.3 22.5 50.3 50.3 0 27.7-22.6 50.3-50.3 50.3zM540.8 611c0 27.8-22.5 50.3-50.3 50.3-27.8 0-50.3-22.5-50.3-50.3v-321c0-27.8 22.5-50.3 50.3-50.3 27.8 0 50.3 22.5 50.3 50.3V611zM990.9 91c0 20.1 14.2 36.9 33.1 40.9-4.4 22-12.5 43.2-23.9 62.5-6.8-4.6-14.9-7-23.1-7-23.1 0-41.8 18.7-41.8 41.8 0 9.6 3.3 19 9.4 26.4-22.8 16.7-49.3 28.8-78 34.8-3.3-19.8-20.5-34.9-41.2-34.9-20.8 0-38 15.2-41.2 35.1-28.8-5.9-55.4-17.8-78.4-34.5 6.1-7.3 9.8-16.7 9.8-26.9 0-23.1-18.7-41.8-41.8-41.8-8.5 0-16.9 2.6-23.9 7.5-11.5-19.4-19.7-40.7-24.2-62.8 19.4-3.6 34.1-20.6 34.1-41.1 0-20.4-14.6-37.3-33.9-41 5-24.1 14.4-47.1 27.7-67.8 6.2 3.4 13.1 5.2 20.2 5.2 23.1 0 41.8-18.7 41.8-41.8 0-7.5-2-15-5.9-21.4 22.2-15.3 47.5-26.3 74.9-31.8 4 18.9 20.8 33.1 40.9 33.1 20 0 36.8-14.1 40.8-32.9 27.3 5.6 52.5 16.7 74.6 32.1-3.6 6.1-5.6 13.3-5.6 20.9 0 23.1 18.7 41.8 41.8 41.8 6.7 0 13.4-1.6 19.4-4.8 13.2 20.7 22.5 43.6 27.4 67.6-18.9 4-33 20.8-33 40.8z m-166-88.7c-49.2 0-89.2 39.9-89.2 89.2 0 49.3 39.9 89.2 89.2 89.2 49.3 0 89.2-39.9 89.2-89.2 0-49.3-39.9-89.2-89.2-89.2z"  horiz-adv-x="1024" />

    
    <glyph glyph-name="guanlian" unicode="&#59046;" d="M633.3 213.3H485.5v68.3h147.9l3.8 474.1-565.1 3.8-3.8-474.1 151.7-3.8v-68.3H72.1C32.3 213.3 0 245.7 0 285.4V755.7c0 39.7 32.3 72.1 72.1 72.1h561.3c39.7 0 72.1-32.3 72.1-72.1v-470.3c-0.1-39.7-32.4-72.1-72.2-72.1zM951.9-59.7H390.7c-39.7 0-72.1 32.3-72.1 72.1V482.6c0 39.7 32.3 72.1 72.1 72.1h147.9v-68.3H390.7l-3.8-474.1 565.1-3.8 3.8 474.1-151.8 3.8v68.3h147.9c39.7 0 72.1-32.3 72.1-72.1v-470.3c0-39.7-32.3-72-72.1-72z"  horiz-adv-x="1024" />

    
    <glyph glyph-name="jiazaishibai" unicode="&#59045;" d="M292.6 566.9m-73.1 0a73.1 73.1 0 1 1 146.2 0 73.1 73.1 0 1 1-146.2 0ZM786 197.9c-167.4 104-381.1 104-548.4 0-16.4-10.2-22.1-32.8-12.9-50.8 9.1-18 29.8-24.3 46.2-14.1 147.1 91.4 334.7 91.4 481.9 0 5.2-3.3 11-4.8 16.6-4.8 11.8 0 23.3 6.9 29.5 19 9.2 17.9 3.4 40.6-12.9 50.7zM877.7 859.4H146.3C65.5 859.4 0 793.9 0 713.1v-658.3C0-26 65.5-91.5 146.3-91.5h731.4c80.8 0 146.3 65.5 146.3 146.3V713.1c0 80.8-65.5 146.3-146.3 146.3z m73.2-804.5c0-40.4-32.7-73.1-73.1-73.1H146.3c-40.4 0-73.1 32.7-73.1 73.1V713.1c0 40.4 32.7 73.1 73.1 73.1h731.4c40.5 0 73.1-32.7 73.1-73.1v-658.2zM731.4 566.9m-73.1 0a73.1 73.1 0 1 1 146.2 0 73.1 73.1 0 1 1-146.2 0Z"  horiz-adv-x="1024" />

    
    <glyph glyph-name="kongtouxiang" unicode="&#59044;" d="M512 635.4m-245.8 0a245.8 245.8 0 1 1 491.6 0 245.8 245.8 0 1 1-491.6 0ZM512 348.6c-249.6 0-458.3-174.5-510.9-408.2-6.2-27.6 15.7-53.6 43.9-53.6h934c28.3 0 50.1 26 43.9 53.6C970.3 174.1 761.6 348.6 512 348.6z"  horiz-adv-x="1024" />

    
    <glyph glyph-name="danweiguanli-jibenxinxi-jingweidu-dingwei" unicode="&#59037;" d="M512 896C296.8 896 121.7 721 121.7 505.7c0-64.1 22.5-138.3 68.9-226.8 28.8-55.2 66.9-115.4 113.2-178.9 36.7-50.5 77.7-101.9 121.7-152.8 14.5-16.8 28-32 40.2-45.3 4.3-4.7 8.1-8.8 11.4-12.3l4.2-4.4c8-8.4 18.7-13 30.2-13.2h0.5c11.3 0 22 4.4 30 12.3l4.3 4.4c3.3 3.4 7.2 7.3 11.4 11.8 12.2 12.8 25.7 27.4 40.3 43.6 44.3 49.4 85.3 99.5 122 149.1 57.3 77.3 101.8 150.2 132.2 216.7 33.2 72.5 50 138.4 50 195.8C902.3 721 727.3 896 512 896z m0-595c-113 0-204.9 92-204.9 204.9 0 112.8 91.9 204.7 204.9 204.7s204.9-91.8 204.9-204.7S625 301 512 301zM442.209696 435.867543a98.8 98.8 0 1 1 139.721861 139.726738 98.8 98.8 0 1 1-139.721861-139.726738Z"  horiz-adv-x="1024" />

    
    <glyph glyph-name="zhihuixunhu-renwujiedianxiangqing" unicode="&#59034;" d="M335.2 808.2c8.6 0 15.9-7.3 15.9-15.9v-231.5c0-8.6-7.3-15.9-15.9-15.9H103.7c-8.6 0-15.9 7.3-15.9 15.9V792.3c0 8.6 7.3 15.9 15.9 15.9h231.5m0 87.8H103.7C46.7 896 0 849.3 0 792.3v-231.5c0-57 46.7-103.7 103.7-103.7h231.5c57 0 103.7 46.6 103.7 103.7V792.3C438.9 849.3 392.2 896 335.2 896zM980.1 742.4H614.4c-24.2 0-43.9 19.7-43.9 43.9s19.7 43.9 43.9 43.9h365.7c24.2 0 43.9-19.6 43.9-43.9s-19.7-43.9-43.9-43.9zM980.1 523H614.4c-24.2 0-43.9 19.6-43.9 43.9s19.7 43.9 43.9 43.9h365.7c24.2 0 43.9-19.6 43.9-43.9s-19.7-43.9-43.9-43.9zM335.2 223.1c8.6 0 15.9-7.3 15.9-15.9v-231.5c0-8.6-7.3-15.9-15.9-15.9H103.7c-8.6 0-15.9 7.3-15.9 15.9V207.2c0 8.6 7.3 15.9 15.9 15.9h231.5m0 87.8H103.7C46.7 310.9 0 264.2 0 207.2v-231.5c0-57 46.7-103.7 103.7-103.7h231.5c57 0 103.7 46.7 103.7 103.7V207.2c0 57-46.7 103.7-103.7 103.7zM980.1 157.3H614.4c-24.2 0-43.9 19.7-43.9 43.9s19.7 43.9 43.9 43.9h365.7c24.2 0 43.9-19.6 43.9-43.9s-19.7-43.9-43.9-43.9zM980.1-62.2H614.4c-24.2 0-43.9 19.7-43.9 43.9s19.7 43.9 43.9 43.9h365.7c24.2 0 43.9-19.6 43.9-43.9s-19.7-43.9-43.9-43.9z"  horiz-adv-x="1024" />

    
    <glyph glyph-name="zhihuixunhu-shenhe" unicode="&#59033;" d="M932.689056-128H91.310944c-21.699435 0-39.398975 17.599542-39.398975 39.398975 0 21.699435 17.599542 39.398975 39.398975 39.398975h841.478109c21.699435 0 39.398975-17.599542 39.398975-39.398975-0.099997-21.799433-17.69954-39.398975-39.498972-39.398975z m-0.099998 156.595926H93.110898c-21.699435 0-39.398975 17.599542-39.398975 39.398975V207.091282c0 68.79821 55.998543 124.796753 124.696756 124.796754h158.995863c-2.099945 41.49892-16.299576 107.897193-28.999245 122.59681-42.098905 54.19859-65.098306 116.996956-67.798237 183.195234-0.199995 72.498114 29.499233 141.096329 81.597878 189.595068C373.6036 875.073904 442.901798 899.873259 512.899977 895.473374c69.498192 4.499883 138.3964-19.99948 189.595067-67.298249 51.998647-47.998751 81.997867-115.996982 82.497854-186.495149-2.499935-68.298223-25.499337-131.396582-66.398273-184.09521-13.699644-15.999584-27.999272-82.197862-30.299211-123.696782h158.995863c68.79821 0 124.696756-55.998543 124.696756-124.796754V67.994901c0-21.799433-17.599542-39.398975-39.398975-39.398975z m-800.179183 78.697953h760.780208V209.09123c0 25.399339-20.699461 46.098801-45.998803 46.098801H661.296116c-12.799667 0-24.799355 6.299836-32.199162 16.699566-10.899716 15.599594-17.69954 33.899118-19.699488 53.098618-0.199995 1.699956-0.199995 3.399912-0.199995 5.099868 0.699982 24.799355 11.599698 134.496501 48.298744 177.295387 29.59923 38.199006 46.798783 85.597773 48.698733 135.596472-0.299992 47.098775-21.199448 94.197549-57.198512 127.396686-35.899066 33.199136-84.397804 50.098697-133.296532 46.49879-1.999948-0.199995-3.899899-0.099997-5.799849 0-49.098723 3.799901-98.097448-13.499649-133.996514-46.998777-36.099061-33.599126-56.698525-81.09789-56.598528-130.29661 1.999948-48.298743 19.199501-95.497516 49.898702-135.096485 35.999063-41.49892 46.49879-151.596056 47.098775-176.495409 0-1.399964 0-2.899925-0.099998-4.299888-1.599958-19.099503-8.499779-37.599022-19.699487-53.598606-7.399807-10.499727-19.399495-16.699566-32.199163-16.699565H178.508676c-25.399339 0-45.998803-20.699461-45.998803-46.098801l-0.099998-99.997398z"  horiz-adv-x="1024" />

    
    <glyph glyph-name="zhihuixunhu-shangbao" unicode="&#59032;" d="M1009.3 75.2L605.9 773.9c-41.7 72.3-146.1 72.3-187.9 0L14.7 75.2c-41.7-72.3 10.4-162.7 93.9-162.7h806.7c83.6 0 135.8 90.4 94 162.7zM512 51.3c-29 0-52.5 23.5-52.5 52.5s23.5 52.5 52.5 52.5 52.5-23.5 52.5-52.5-23.5-52.5-52.5-52.5z m52.5 199.4c0-29-23.5-52.5-52.5-52.5s-52.5 23.5-52.5 52.5V585.8c0 29 23.5 52.5 52.5 52.5s52.5-23.5 52.5-52.5v-335.1z"  horiz-adv-x="1024" />

    
    <glyph glyph-name="zhihuixunhu-renwujiedian" unicode="&#59031;" d="M887.8 157.4c-45.5 0-85.4-22.5-110.2-56.7l-144.1 74.2c11.7 25.2 18.7 52.9 18.7 82.5 0 33.6-9.1 64.7-24.1 92.3l84.2 34.8c7.5-12.7 16.6-24.6 28.6-34.6 57.4-48.7 143.3-41.7 192 15.8 48.7 57.4 41.7 143.3-15.8 192s-143.3 41.7-192-15.8c-29.4-34.6-38.1-79.7-28-120.8l-91.6-37.9c-31.9 37.9-77.7 63.2-129.8 68.5V585.3c65.7 9.7 116.4 65.7 116.4 134.3 0 75.3-60.9 136.2-136.2 136.2s-136.2-60.9-136.2-136.2c0-68.4 50.7-124.6 116.4-134.3v-133.7c-98.9-10.1-176.5-92.7-176.5-194.4 0-48.8 18.4-93 48-127.4l-59.3-30.5c-24.6 35.6-65.6 59-112 59C60.9 158.4 0 97.4 0 22.1s60.9-136.2 136.2-136.2 136 61.1 136 136.2c0 14.5-2.8 28.3-7 41.4l72.8 37.4c32.9-24.9 73.5-40.1 117.8-40.1 64.6 0 121.5 31.7 157.2 79.8l146.6-75.4c-4.8-13.9-8-28.6-8-44.2 0-75.3 60.9-136.2 136.2-136.2S1024-54.3 1024 21s-60.9 136.4-136.2 136.4z"  horiz-adv-x="1024" />

    
    <glyph glyph-name="daohang-quanxianguanli1" unicode="&#58990;" d="M514.5 299.1c-43.5 0-78.8-35.3-78.8-78.8 0-28.1 14.8-52.6 36.9-66.5v-45.5c0-21.7 17.6-39.4 39.4-39.4 21.8 0 39.4 17.7 39.4 39.4v42.8c24.8 13.3 41.8 39.1 41.8 69.2 0 43.5-35.2 78.8-78.7 78.8zM905.8 502.2H787.7V620.3C787.7 772.6 664.3 896 512 896 359.7 896 236.3 772.6 236.3 620.3h78.8c0 108.8 88.2 196.9 196.9 196.9 108.8 0 196.9-88.2 196.9-196.9v-118.1H118.2c-43.5 0-78.8-35.3-78.8-78.8v-472.6c0-43.5 35.3-78.8 78.8-78.8h787.7c43.5 0 78.8 35.3 78.8 78.8V423.4c-0.1 43.5-35.4 78.8-78.9 78.8z m0-472.7c0-43.5-35.3-78.8-78.8-78.8H196.9c-43.5 0-78.8 35.3-78.8 78.8V344.6c0 43.5 35.3 78.8 78.8 78.8h630.2c43.5 0 78.8-35.3 78.8-78.8v-315.1z"  horiz-adv-x="1024" />

    
    <glyph glyph-name="zonglan" unicode="&#58989;" d="M1011.5 426.7L577 843.1c-17.5 16.7-40.6 26-65 26-24.5 0-47.6-9.2-65-26L12.5 426.7c-16.1-15.4-16.7-41-1.2-57.2 7.9-8.3 18.6-12.5 29.2-12.5 10.1 0 20.1 3.7 28 11.2L503 784.6c4.8 4.6 13.4 4.6 18.2 0l434.5-416.4c16.1-15.4 41.7-14.9 57.2 1.2 15.3 16.3 14.8 41.8-1.4 57.3zM875.8 384c-22.3 0-40.4-18.1-40.4-40.4v-350.3c0-7.4-6-13.5-13.5-13.5H660.2c-7.4 0-13.5 6-13.5 13.5V208.8c0 22.3-18.1 40.4-40.4 40.4H417.7c-22.3 0-40.4-18.1-40.4-40.4v-215.6c0-7.4-6-13.5-13.5-13.5H202.1c-7.4 0-13.5 6-13.5 13.5V343.6c0 22.3-18.1 40.4-40.4 40.4-22.3 0-40.4-18.1-40.4-40.4v-350.3c0-52 42.3-94.3 94.3-94.3h161.7c52 0 94.3 42.3 94.3 94.3V168.4h107.8v-175.2c0-52 42.3-94.3 94.3-94.3h161.7c52 0 94.3 42.3 94.3 94.3V343.6c0 22.3-18.1 40.4-40.4 40.4z"  horiz-adv-x="1024" />

    
    <glyph glyph-name="zonghoutai-denglu-yonghu" unicode="&#58978;" d="M1000.499323-65.198667c-14.999979 190.699736-139.999806 350.399514-312.299567 416.399422 74.499897 57.39992 118.199836 146.099797 118.299836 240.099668C806.499592 759.600189 669.199782 896 499.900017 896S193.300442 759.600189 193.300442 591.300423c0-101.19986 49.999931-190.699736 126.399825-246.099659C155.200495 275.50086 37.500658 119.201077 23.200678-65.998666c-1.199998-4.299994-1.999997-8.599988-1.999997-13.199982 0-12.999982 5.199993-25.399965 14.39998-34.599952 9.199987-9.099987 21.69997-14.29998 34.599952-14.19998 27.099962 0 48.999932 21.89997 48.999932 48.799932v0.2h1.099998c12.899982 203.999717 182.999746 365.699493 391.699457 365.699493 208.599711 0 378.699475-161.699776 391.499457-365.799493h1.299998v-0.2c0-12.999982 5.199993-25.399965 14.39998-34.499952 9.199987-9.099987 21.59997-14.29998 34.599952-14.19998 27.099962 0 49.099932 21.89997 49.099932 48.799932-0.1 4.899993-0.999999 9.499987-2.399996 13.999981z m-500.999306 449.499377c-115.29984 0-208.699711 92.699871-208.69971 206.999713s93.39987 206.999713 208.69971 206.999712c115.29984 0 208.699711-92.699871 208.699711-206.999712s-93.39987-206.999713-208.699711-206.999713z"  horiz-adv-x="1024" />

    
    <glyph glyph-name="daohang-chengyuanguanli" unicode="&#58977;" d="M927.5 134.1c-17.5 31.7-38.8 61.3-63.3 88.1-20.1 21.9-42.4 42-66.3 59.6-36 26.6-75.5 46.7-116.7 61.6 15.8 10.7 30.8 22.8 44.6 36.6 57.1 57.1 88.5 132.9 88.5 213.7 0 80.7-31.5 156.6-88.5 213.7C668.8 864.5 592.8 896 512.1 896c-80.7 0-156.6-31.5-213.7-88.5-57.1-57.1-88.5-132.9-88.5-213.7 0-80.7 31.5-156.6 88.5-213.7 13.7-13.7 28.5-25.7 44.2-36.3-7.5-2.7-15.1-5.1-22.4-8.2-54.8-23.3-103.9-56.3-146.2-98.6-42.3-42.3-75.3-91.3-98.5-146.1C51.5 34.2 39.4-26 39.4-88c0-22.1 17.9-40 40-40 0.3 0 0.6 0.2 0.9 0.2 0.3 0 0.6-0.2 0.9-0.2h862c0.3 0 0.5 0.2 0.8 0.2 0.3 0 0.5-0.2 0.8-0.2 22.1 0 40 17.9 39.9 40-0.1 77.7-19.8 154.5-57.2 222.1zM289.9 593.8C289.9 716.3 389.6 816 512.1 816c122.5 0 222.2-99.7 222.2-222.2 0-122.5-99.7-222.2-222.2-222.2-122.5-0.1-222.2 99.7-222.2 222.2z m209.2-302.1c1.4 0 2.5 0.6 3.8 0.8 3.1-0.1 6.1-0.9 9.2-0.9 3 0 5.8 0.8 8.7 0.8 1.5-0.2 2.7-0.9 4.2-0.9 81.7 0 159.7-25.6 225.3-74.1 19.7-14.7 38.3-31.2 54.8-49.3 20.3-22.1 37.9-46.7 52.4-72.8 24.4-44 39.3-92.9 44.7-143.1H121.7c20.1 190.5 181.6 339.5 377.4 339.5z"  horiz-adv-x="1024" />

    
    <glyph glyph-name="daohang-jibenpeizhi" unicode="&#58976;" d="M347.1 426.3H1024v-84.6H347.1zM186 495.6H37.3C16.8 495.6 0.1 479 0.1 458.4v-148.7c0-20.5 16.6-37.2 37.2-37.2H186c20.5 0 37.2 16.6 37.2 37.2V458.4c0 20.5-16.7 37.2-37.2 37.2zM0.1 54.5h507.7v-84.6H0.1zM854.8 86.5c0 20.5-16.6 37.2-37.2 37.2H668.9c-20.5 0-37.2-16.6-37.2-37.2v-148.7c0-20.5 16.6-37.2 37.2-37.2h148.7c20.5 0 37.2 16.6 37.2 37.2v32.1H1024v84.6H854.8v32zM37.2 644.3h148.7c20.5 0 37.2 16.6 37.2 37.2V830.2c0 20.5-16.6 37.2-37.2 37.2H37.2C16.6 867.4 0 850.8 0 830.2v-148.7c0-20.6 16.6-37.2 37.2-37.2zM347.1 798.2H1024v-84.6H347.1z"  horiz-adv-x="1024" />

    
    <glyph glyph-name="daohang-tiaocharenwuguanli" unicode="&#58975;" d="M738.6 489.1L477 227.5 358.8 345.6c-15 15-39.4 15-54.4 0s-15-39.4 0-54.4l145.1-145.1c7.6-7.6 17.5-11.3 27.4-11.2 9.9-0.1 19.9 3.6 27.5 11.2L793 434.7c15 15 15 39.4 0 54.4s-39.4 15-54.4 0zM868.7 816H726.4V846.7C726.4 873.9 704.2 896 677 896H347c-27.2 0-49.3-22.1-49.3-49.3V816H155.3c-46.2 0-83.8-37.6-83.8-83.8v-776.4c0-46.2 37.6-83.8 83.8-83.8h713.5c46.2 0 83.8 37.6 83.8 83.8V732.2c-0.1 46.2-37.7 83.8-83.9 83.8z m-499.1 8h284.7v-81.9H369.6V824z m511-868.2c0-6.5-5.3-11.8-11.8-11.8H155.3c-6.5 0-11.8 5.3-11.8 11.8V732.2c0 6.5 5.3 11.8 11.8 11.8h142.4v-24.6c0-27.2 22.1-49.3 49.3-49.3h330c27.2 0 49.3 22.1 49.3 49.3V744h142.4c6.5 0 11.8-5.3 11.8-11.8v-776.4z"  horiz-adv-x="1024" />

    
    <glyph glyph-name="yemian" unicode="&#58974;" d="M922.1 896H101.9C45.7 896 0 850.3 0 794.1v-820.3C0-82.3 45.7-128 101.9-128h820.3c56.2 0 101.9 45.7 101.9 101.9V794.1C1024 850.3 978.3 896 922.1 896zM101.9 829h820.3c19.2 0 34.9-15.7 34.9-34.9v-181.8H67V794.1C67 813.3 82.6 829 101.9 829z m820.2-890H101.9C82.6-61 67-45.3 67-26.1V545.3h890v-571.4c0-19.2-15.6-34.9-34.9-34.9zM148.3 721.1m-33.5 0a33.5 33.5 0 1 1 67 0 33.5 33.5 0 1 1-67 0ZM263.2 721.1m-33.5 0a33.5 33.5 0 1 1 67 0 33.5 33.5 0 1 1-67 0ZM378 721.1m-33.5 0a33.5 33.5 0 1 1 67 0 33.5 33.5 0 1 1-67 0ZM875.7 687.6H492.9c-18.5 0-33.5 15-33.5 33.5s15 33.5 33.5 33.5h382.8c18.5 0 33.5-15 33.5-33.5s-15-33.5-33.5-33.5z"  horiz-adv-x="1024" />

    
    <glyph glyph-name="guanbi" unicode="&#58973;" d="M1008.4-37.5L586.9 384l421.5 421.5c48.3 48.3-26.6 123.2-74.9 74.9L512 458.9 90.5 880.4C42.2 928.7-32.7 853.8 15.6 805.5L437.1 384 15.6-37.5c-48.3-48.3 26.6-123.2 74.9-74.9L512 309.1l421.5-421.5c48.3-48.3 123.2 26.6 74.9 74.9z"  horiz-adv-x="1024" />

    
    <glyph glyph-name="xinzengyuanxingban" unicode="&#58972;" d="M512 384m-482.3 0a482.3 482.3 0 1 1 964.6 0 482.3 482.3 0 1 1-964.6 0ZM512-128C229.7-128 0 101.7 0 384S229.7 896 512 896s512-229.7 512-512-229.7-512-512-512z m0 964.7c-249.6 0-452.7-203-452.7-452.7s203-452.7 452.7-452.7 452.7 203 452.7 452.7S761.6 836.7 512 836.7zM474.9 654.6v-541.1c0-47.7 74.2-47.8 74.2 0V654.6c0 47.7-74.2 47.8-74.2 0zM241.4 346.9h541.1c47.7 0 47.8 74.2 0 74.2H241.4c-47.7 0-47.8-74.2 0-74.2z"  horiz-adv-x="1024" />

    
    <glyph glyph-name="shanchuyihangyuanxingban" unicode="&#58971;" d="M512 384m-482.3 0a482.3 482.3 0 1 1 964.6 0 482.3 482.3 0 1 1-964.6 0ZM512-128C229.7-128 0 101.7 0 384S229.7 896 512 896s512-229.7 512-512-229.7-512-512-512z m0 964.7c-249.6 0-452.7-203-452.7-452.7s203-452.7 452.7-452.7 452.7 203 452.7 452.7S761.6 836.7 512 836.7zM241.5 346.9h541.1c47.7 0 47.8 74.2 0 74.2H241.5c-47.8 0-47.9-74.2 0-74.2z"  horiz-adv-x="1024" />

    
    <glyph glyph-name="xiayitiao" unicode="&#58966;" d="M843.4 355l-248-247.9c-15.4-15.5-42.5-15.5-57.8 0-7.8 7.7-12 18-12 29 0 10.9 4.2 21.2 12 28.9l179.1 179.2H208.5c-22 0-39.9 17.8-39.9 39.8s17.9 39.8 39.9 39.8h508.1L537.6 603c-7.8 7.7-12 18-12 29 0 10.9 4.2 21.2 12 29 7.7 7.7 18 12 29 12s21.2-4.2 29-12l248-247.9c7.7-7.7 12-18 12-29s-4.5-21.3-12.2-29.1zM1024 384C1024 666.3 794.3 896 512 896S0 666.3 0 384s229.7-512 512-512 512 229.7 512 512z m-75.9 0c0-240.5-195.6-436.1-436.1-436.1S75.9 143.5 75.9 384 271.5 820.1 512 820.1 948.1 624.5 948.1 384z"  horiz-adv-x="1024" />

    
    <glyph glyph-name="shangyitiao" unicode="&#58965;" d="M180.6 355l248-247.9c15.4-15.5 42.5-15.5 57.8 0 7.8 7.7 12 18 12 29 0 10.9-4.2 21.2-12 28.9l-179 179.2h508.1c22 0 39.9 17.8 39.9 39.8s-17.9 39.8-39.9 39.8H307.4l179 179.2c7.8 7.7 12 18 12 29 0 10.9-4.2 21.2-12 29-7.7 7.7-18 12-29 12s-21.2-4.2-29-12L180.6 413c-7.7-7.7-12-18-12-29s4.3-21.2 12-29zM512-128c282.3 0 512 229.7 512 512S794.3 896 512 896 0 666.3 0 384s229.7-512 512-512z m0 948.1c240.5 0 436.1-195.6 436.1-436.1S752.5-52.1 512-52.1 75.9 143.5 75.9 384 271.5 820.1 512 820.1z"  horiz-adv-x="1024" />

    
    <glyph glyph-name="quxiaoguanlian" unicode="&#58964;" d="M101.8 849.2c-15.2 15.2-39.8 15.2-55 0-15.2-15.2-15.2-39.8 0-55l875.4-875.4c7.6-7.6 17.6-11.4 27.5-11.4 10 0 19.9 3.8 27.5 11.4 15.2 15.2 15.2 39.8 0 55L101.8 849.2zM485.5 281.6v-68.3h104.2l-68.3 68.3zM637.1 755.7L633.9 355l71.4-71.4c0 0.6 0.1 1.2 0.1 1.7V755.7c0 39.7-32.3 72.1-72.1 72.1H161.2l69.3-69.3 406.6-2.8zM71.8 731.2l-50.1 50.1c-4.1 4.1-7.5 8.6-10.2 13.4C4.3 783.4 0 770 0 755.7v-470.3c0-39.7 32.3-72.1 72.1-72.1H220v68.3l-151.7 3.8 3.5 445.8zM386.9 12.3l3.2 400.6-71.4 71.4c0-0.6-0.1-1.2-0.1-1.7v-470.3c0-39.7 32.3-72.1 72.1-72.1h472.1l-69.3 69.3-406.6 2.8zM951.9 554.7H804v-68.3l151.7-3.8-3.6-445.8 50.1-50.1c4.1-4.1 7.5-8.6 10.2-13.4 7.3 11.3 11.5 24.6 11.5 39V482.6c0.1 39.7-32.2 72.1-72 72.1zM538.5 486.4v68.3H434.3l68.3-68.3z"  horiz-adv-x="1024" />

    
    <glyph glyph-name="jilu" unicode="&#58962;" d="M868.7 816H726.4V846.7C726.4 873.9 704.2 896 677 896H347c-27.2 0-49.3-22.1-49.3-49.3V816H155.3c-46.2 0-83.8-37.6-83.8-83.8v-776.4c0-46.2 37.6-83.8 83.8-83.8h713.5c46.2 0 83.8 37.6 83.8 83.8V732.2c-0.1 46.2-37.7 83.8-83.9 83.8z m-499.1 8h284.7v-81.9H369.6V824z m511-868.2c0-6.5-5.3-11.8-11.8-11.8H155.3c-6.5 0-11.8 5.3-11.8 11.8V732.2c0 6.5 5.3 11.8 11.8 11.8h142.4v-24.6c0-27.2 22.1-49.3 49.3-49.3h330c27.2 0 49.3 22.1 49.3 49.3V744h142.4c6.5 0 11.8-5.3 11.8-11.8v-776.4zM746.8 357.5H277.2c-22 0-39.8-17.9-39.8-39.8 0-22 17.9-39.8 39.8-39.8h469.6c22 0 39.8 17.9 39.8 39.8 0.1 21.9-17.8 39.8-39.8 39.8zM746.8 547.3H277.2c-22 0-39.8-17.9-39.8-39.8s17.9-39.8 39.8-39.8h469.6c22 0 39.8 17.9 39.8 39.8s-17.8 39.8-39.8 39.8zM746.8 167.7H277.2c-22 0-39.8-17.9-39.8-39.8 0-22 17.9-39.8 39.8-39.8h469.6c22 0 39.8 17.9 39.8 39.8 0.1 21.9-17.8 39.8-39.8 39.8z"  horiz-adv-x="1024" />

    
    <glyph glyph-name="guanlianzhuangtai" unicode="&#58961;" d="M0 896l1024-1024V896H0z m609.2-349.2H558c-13.8 0-24.9 11.2-24.9 24.9V734.5c0 13.8 11.2 24.9 24.9 24.9h194.3c13.8 0 24.9-11.2 24.9-24.9v-162.8c0-13.8-11.2-24.9-24.9-24.9h-51.2v23.6h51.2l1.3 164.1-195.6 1.3-1.3-164.1 52.5-1.3v-23.6z m278.3-69.6c0-13.8-11.2-24.9-24.9-24.9H668.2c-13.8 0-24.9 11.2-24.9 24.9V640c0 13.8 11.2 24.9 24.9 24.9h51.2v-23.6h-51.2l-1.3-164.1 195.6-1.3 1.3 164.1-52.5 1.3v23.6h51.2c13.8 0 24.9-11.2 24.9-24.9v-162.8z"  horiz-adv-x="1024" />

    
    <glyph glyph-name="duomeitiziyuan" unicode="&#58960;" d="M442.5 242.2l179.8 101.2c38.2 21.5 38.2 56.6 0 78.1L442.5 522.7c-38.2 21.5-69.5 3.2-69.5-40.6v-199.2c0-43.9 31.3-62.2 69.5-40.7zM921.6 896H102.4C46.1 896 0 849.9 0 793.6v-819.3C0-81.9 46.1-128 102.4-128h819.2c56.3 0 102.4 46.1 102.4 102.4V793.6C1024 849.9 977.9 896 921.6 896z m34.1-921.6c0-18.5-15.6-34.1-34.1-34.1H102.4c-18.5 0-34.1 15.6-34.1 34.1v99h887.5v-99z m0 167.3H68.3V626.3h887.5v-484.6zM68.3 694.6v99c0 18.5 15.6 34.1 34.1 34.1h819.2c18.5 0 34.1-15.6 34.1-34.1v-99H68.3z"  horiz-adv-x="1024" />

    
    <glyph glyph-name="xiangqing" unicode="&#58959;" d="M508.000391-54.807148H93.140904c-5.099502 0-9.099111 4.0996-9.099111 9.099112V813.708036c0 4.999512 4.0996 9.099111 9.099111 9.099112H835.968362c4.999512 0 9.099111-4.0996 9.099112-9.099112v-347.366077c0-20.198028 16.398399-36.596426 36.596426-36.596426 20.198028 0 36.596426 16.398399 36.596426 36.596426V859.403574c0 20.198028-16.398399 36.596426-36.596426 36.596426H47.345376C27.147349 896 10.848941 879.601601 10.848941 859.403574v-950.807148c0-20.198028 16.398399-36.596426 36.596426-36.596426H508.000391c20.198028 0 36.596426 16.398399 36.596426 36.596426 0 20.298018-16.398399 36.596426-36.596426 36.596426zM753.576409 624.02656c0 20.198028-16.398399 36.596426-36.596427 36.596426H178.832536c-20.198028 0-36.596426-16.398399-36.596426-36.596426 0-20.198028 16.398399-36.596426 36.596426-36.596426h538.247437c20.198028 0 36.496436 16.398399 36.496436 36.596426zM562.195098 388.649546c0 20.198028-16.398399 36.596426-36.596426 36.596426H184.531979c-20.198028 0-36.596426-16.398399-36.596426-36.596426 0-20.198028 16.398399-36.596426 36.596426-36.596426h341.066693c20.198028 0 36.596426 16.398399 36.596426 36.596426zM184.531979 189.768968c-20.198028 0-36.596426-16.398399-36.596426-36.596426 0-20.198028 16.398399-36.596426 36.596426-36.596426h242.276341c20.198028 0 36.596426 16.398399 36.596426 36.596426 0 20.198028-16.398399 36.596426-36.596426 36.596426H184.531979zM1002.552095-61.306513L881.76389 59.381701c19.398106 29.197149 30.796992 64.193731 30.796993 101.89005 0 101.79006-82.491944 184.381994-184.381994 184.381994S543.796895 263.06181 543.796895 161.271751s82.491944-184.381994 184.381994-184.381994c37.796309 0 72.992872 11.398887 102.19002 30.896983l120.788205-120.588224c7.099307-7.099307 16.398399-10.598965 25.69749-10.598965s18.598184 3.599648 25.697491 10.698955c14.198613 14.198613 14.198613 37.196368 0 51.394981z m-274.473196 110.989161c-61.493995 0-111.589103 50.095108-111.589103 111.589103s50.095108 111.589103 111.589103 111.589102c61.493995 0 111.589103-50.095108 111.589102-111.589102s-49.995118-111.589103-111.589102-111.589103z"  horiz-adv-x="1024" />

    
    <glyph glyph-name="quyu" unicode="&#58957;" d="M947.1 482.8c-4.5 0-9-0.4-13.4-1.2L721.9 782.9c5.8 10.8 9 23.1 9 36.2C731 861.6 696.5 896 654 896c-40.9 0-74.4-32-76.8-72.3L134.4 680.5c-14.1 15.8-34.6 25.8-57.5 25.8-42.5 0-76.9-34.5-76.9-76.9 0-37 26.1-67.9 60.9-75.2L112.7 136c-16.1-14.1-26.3-34.8-26.3-57.9 0-42.5 34.4-76.9 76.9-76.9 15.7 0 30.2 4.7 42.4 12.7l383.1-95c11.7-27.5 39-46.8 70.8-46.8 42.5 0 76.9 34.4 76.9 76.9 0 4.5-0.4 9-1.2 13.5l208.9 366.7c0.9 0 1.8-0.1 2.8-0.1 42.5 0 76.9 34.4 76.9 76.9 0.1 42.4-34.3 76.8-76.8 76.8z m-257.5-463c-9.2 3.9-19.3 6.1-30 6.1-30.7 0-57.1-17.9-69.5-43.9L240 72.2c0.1 2 0.2 3.9 0.2 5.9 0 37.3-26.6 68.4-61.8 75.4l-51.8 417.2c13.3 11.3 22.7 27 25.9 44.8l450.7 145.8c13.6-11.9 31.3-19.1 50.8-19.1 4.5 0 8.9 0.4 13.3 1.1L879.1 442c-5.8-10.8-9-23.1-9-36.2 0-16.6 5.3-32 14.2-44.5L689.6 19.8z"  horiz-adv-x="1024" />

    
    <glyph glyph-name="dingwei" unicode="&#58956;" d="M512 896C296.8 896 121.7 721 121.7 505.7c0-64.1 22.5-138.3 68.9-226.8 28.8-55.2 66.9-115.4 113.2-178.9 36.7-50.5 77.7-101.9 121.7-152.8 14.5-16.8 28-32 40.2-45.3 4.3-4.7 8.1-8.8 11.4-12.3l4.2-4.4c8-8.4 18.7-13 30.2-13.2h0.5c11.3 0 22 4.4 30 12.3l4.3 4.4c3.3 3.4 7.2 7.3 11.4 11.8 12.2 12.8 25.7 27.4 40.3 43.6 44.3 49.4 85.3 99.5 122 149.1 57.3 77.3 101.8 150.2 132.2 216.7 33.2 72.5 50 138.4 50 195.8C902.3 721 727.2 896 512 896z m0-85.1c168.3 0 305.2-136.9 305.2-305.2 0-45.2-14.2-99.1-42.3-160.4-28-61.2-69.5-128.9-123.2-201.4-35.2-47.5-74.6-95.6-117-142.9-7.7-8.6-15-16.6-22-24.2-7.2 8.1-14.9 16.8-22.8 26-42.6 49.3-82.1 98.8-117.3 147.3-43.8 60.2-79.7 116.7-106.6 168.2-39.3 75-59.2 138.1-59.2 187.4C206.8 674 343.7 810.9 512 810.9zM512 341.5c90.6 0 164.3 73.7 164.3 164.3S602.6 670 512 670s-164.3-73.7-164.3-164.2S421.4 341.5 512 341.5z m0 243.4c43.7 0 79.2-35.5 79.2-79.2s-35.5-79.2-79.2-79.2-79.2 35.5-79.2 79.2 35.5 79.2 79.2 79.2z"  horiz-adv-x="1024" />

    
    <glyph glyph-name="guiji" unicode="&#58955;" d="M933.2 50.7c-28.3 0-53.5-13.2-69.9-33.7L340 126.7c-0.6 5.6-1.8 11-3.4 16.2L685 572c4.7-0.8 9.6-1.2 14.6-1.2 49.3 0 89.3 40 89.3 89.3s-40 89.3-89.3 89.3c-26.2 0-49.7-11.3-66.1-29.2L177.7 827.4C168.3 866.7 133 896 90.8 896 41.5 896 1.5 856 1.5 806.7s40-89.3 89.3-89.3c27.6 0 52.2 12.5 68.6 32.1l452.5-106.4c1.6-8.4 4.4-16.4 8.3-23.8L280.4 200.7c-9.1 3.2-18.9 4.9-29.1 4.9-49.3 0-89.3-40-89.3-89.3s40-89.3 89.3-89.3c23.4 0 44.7 9 60.7 23.8l534.9-112.2c10.1-38.3 44.9-66.5 86.4-66.5 49.3 0 89.3 40 89.3 89.3-0.1 49.3-40.1 89.3-89.4 89.3z"  horiz-adv-x="1024" />

    
    <glyph glyph-name="xiayiye" unicode="&#58954;" d="M843.4 355l-248-247.9c-15.4-15.5-42.5-15.5-57.8 0-7.8 7.7-12 18-12 29 0 10.9 4.2 21.2 12 28.9l179.1 179.2H208.5c-22 0-39.9 17.8-39.9 39.8s17.9 39.8 39.9 39.8h508.1L537.6 603c-7.8 7.7-12 18-12 29 0 10.9 4.2 21.2 12 29 7.7 7.7 18 12 29 12s21.2-4.2 29-12l248-247.9c7.7-7.7 12-18 12-29s-4.5-21.3-12.2-29.1zM1024 384C1024 666.3 794.3 896 512 896S0 666.3 0 384s229.7-512 512-512 512 229.7 512 512z m-75.9 0c0-240.5-195.6-436.1-436.1-436.1S75.9 143.5 75.9 384 271.5 820.1 512 820.1 948.1 624.5 948.1 384z"  horiz-adv-x="1024" />

    
    <glyph glyph-name="shangyiye" unicode="&#58953;" d="M180.6 355l248-247.9c15.4-15.5 42.5-15.5 57.8 0 7.8 7.7 12 18 12 29 0 10.9-4.2 21.2-12 28.9l-179 179.2h508.1c22 0 39.9 17.8 39.9 39.8s-17.9 39.8-39.9 39.8H307.4l179 179.2c7.8 7.7 12 18 12 29 0 10.9-4.2 21.2-12 29-7.7 7.7-18 12-29 12s-21.2-4.2-29-12L180.6 413c-7.7-7.7-12-18-12-29s4.3-21.2 12-29zM512-128c282.3 0 512 229.7 512 512S794.3 896 512 896 0 666.3 0 384s229.7-512 512-512z m0 948.1c240.5 0 436.1-195.6 436.1-436.1S752.5-52.1 512-52.1 75.9 143.5 75.9 384 271.5 820.1 512 820.1z"  horiz-adv-x="1024" />

    
    <glyph glyph-name="zanwuziyuan" unicode="&#58952;" d="M1024.03132 201.7c-0.2 4.2-1.5 26.4-6.8 46.5-5.4 20.3-16 41.2-18 45.1-0.4 0.8-0.9 1.6-1.3 2.3L890.53132 465.7c-0.6 0.9-1.2 1.8-1.9 2.7-3.3 4.2-20.8 26-42.6 38.5-22.8 13-52.3 15.5-57.9 15.9-0.8 0-1.5 0.1-2.2 0.1H215.03132c-7.6 0-34-1-55.9-14.7-20.8-12.9-35.9-34.4-38.7-38.6-0.5-0.8-1-1.5-1.4-2.3l-90.5-160c-2.8-4.7-12.8-22.2-20.8-48.9-8.4-27.8-7.9-52.9-7.6-60.3v-181.8c0.3-6.4 3.3-39.4 27.8-62.4 23.9-22.4 59.8-24.7 66.7-24.9H925.03132c10 0 44.5 1.8 70.2 24.8 27.1 24.3 28.8 56.9 28.7 66.5v180l0.1 1.4zM87.13132 271.6l1 1.6 89.8 158.9 0.3 0.4c3.1 4.3 10.8 13.4 17.2 17.5 4.6 2.9 14.5 4.3 19.8 4.3h569.7c6.9-0.7 20.4-3.1 27-6.9 7.6-4.4 17.2-14.7 21.2-19.5l0.3-0.4 99.8-158.2-291.3-0.2c-18.9 0-34.3-15.4-34.3-34.3 0-53.9-42.8-96.2-97.5-96.2-54.9 0-97.9 42.2-97.9 96.2 0 18.9-15.3 34.3-34.3 34.3l-292.1 0.2c0.3 0.5 0.6 1.2 0.8 1.6 0.1 0 0.5 0.7 0.5 0.7z m862.4-266.8c-5.5-4.9-17.5-7.2-24.3-7.3H96.43132c-4.1 0.3-15.9 2.3-20.7 5.8l-0.5 0.4-0.4 0.5c-3.4 3.5-5.4 11.4-5.8 14.6l-0.1 0.5v180 1.4l278.4-0.2 1.5-5.9c18.6-73.3 85-124.6 161.4-124.6 76.3 0 142.5 51.2 161.1 124.6l1.5 5.9 282.5 0.2c0-0.5 0.1-1.1 0.1-1.5V20l0.1-2.1c-0.1-1.2-1.2-8.7-6-13.1zM508.83132 573.2c18.9 0 34.3 15.4 34.3 34.3V804.8c0 18.9-15.4 34.3-34.3 34.3s-34.3-15.4-34.3-34.3v-197.3c0-19 15.4-34.3 34.3-34.3zM738.83132 574.5c10.4 0 20.2 4.7 26.7 12.7l78.4 96.7c5.8 7.1 8.4 16.1 7.5 25.2-0.9 9.1-5.4 17.4-12.5 23.1-6.2 5-13.6 7.7-21.6 7.7-10.4 0-20.2-4.6-26.7-12.7l-78.4-96.7c-5-6.1-7.7-13.7-7.7-21.6 0-19.1 15.3-34.4 34.3-34.4zM255.93132 590c6.5-8.2 16.4-12.9 26.8-12.9h0.1c7.8 0 15.3 2.6 21.4 7.5 14.8 11.8 17.2 33.4 5.4 48.2l-77.1 96.7c-6.5 8.2-16.3 12.9-26.8 12.9-7.8 0-15.3-2.6-21.4-7.5-14.8-11.8-17.2-33.4-5.4-48.2l77-96.7z"  horiz-adv-x="1024" />

    
    <glyph glyph-name="tiaochajieguo" unicode="&#58951;" d="M859.5 833.9v-899.8h-695V833.9h695m0 62.1h-695c-34.3 0-62.1-27.8-62.1-62.1v-899.8c0-34.3 27.8-62.1 62.1-62.1h695c34.3 0 62.1 27.8 62.1 62.1V833.9c0 34.3-27.8 62.1-62.1 62.1zM727.2 435.8H603.5c-17.1 0-31.1 13.9-31.1 31.1s13.9 31.1 31.1 31.1h123.6c17.1 0 31.1-13.9 31.1-31.1s-13.9-31.1-31-31.1zM727.2 601.4H603.5c-17.1 0-31.1 13.9-31.1 31.1 0 17.2 13.9 31.1 31.1 31.1h123.6c17.1 0 31.1-13.9 31.1-31.1 0-17.2-13.9-31.1-31-31.1zM727.2 270.1H296.8c-17.1 0-31.1 13.9-31.1 31.1s13.9 31.1 31.1 31.1h430.3c17.1 0 31.1-13.9 31.1-31.1s-13.9-31.1-31-31.1zM727.2 104.4H296.8c-17.1 0-31.1 13.9-31.1 31.1 0 17.2 13.9 31.1 31.1 31.1h430.3c17.1 0 31.1-13.9 31.1-31.1 0-17.1-13.9-31.1-31-31.1zM436.6 435.8H322.7c-31.4 0-56.9 25.6-56.9 56.9V606.6c0 31.4 25.5 56.9 56.9 56.9h113.9c31.4 0 56.9-25.6 56.9-56.9v-113.9c0.1-31.4-25.5-56.9-56.9-56.9z m-108.7 62.1h103.5V601.4H327.9v-103.5z"  horiz-adv-x="1024" />

    
    <glyph glyph-name="suolvetumoshi" unicode="&#58950;" d="M390.111903 822.907138V384.049995H97.540475V822.907138h292.571428M414.509521 896H73.142857C46.245484 896 24.447613 874.202129 24.447613 847.204765v-487.552387c0-26.897373 21.797871-48.795235 48.795234-48.795235h316.969046c40.496045 0 73.092862 32.696807 73.092862 73.092862V847.204765c-0.09999 26.997364-21.897862 48.795235-48.795234 48.795235zM926.459525 384.049995v-438.857143H633.888097V384.049995h292.571428m24.397618 73.092862H609.490479c-26.897373 0-48.795235-21.797871-48.795234-48.795235v-487.552387c0-26.897373 21.797871-48.795235 48.795234-48.795235h316.969046c40.496045 0 73.092862 32.696807 73.092862 73.092862V408.447613c0 26.897373-21.797871 48.695245-48.695244 48.695244zM926.459525 822.907138v-194.980959H633.888097v194.980959h292.571428M950.857143 896H609.490479c-26.897373 0-48.795235-21.797871-48.795234-48.795235v-243.776194c0-26.897373 21.797871-48.795235 48.795234-48.795234h341.266674c26.897373 0 48.795235 21.797871 48.795234 48.795234V847.204765c0 26.997364-21.797871 48.795235-48.695244 48.795235zM390.111903 140.273801v-194.980959H97.540475v194.980959h292.571428m24.397618 73.092862H73.142857c-26.897373 0-48.795235-21.797871-48.795235-48.795234v-243.776194c0-26.897373 21.797871-48.795235 48.795235-48.795235h341.266673c26.897373 0 48.795235 21.797871 48.795235 48.795235V164.671419c0 26.897373-21.797871 48.695245-48.695244 48.695244z"  horiz-adv-x="1024" />

    
    <glyph glyph-name="liebiaomoshi" unicode="&#58949;" d="M347.1 426.3H1024v-84.6H347.1zM146.4 418.8v-69.5H76.9v69.5h69.5m39.6 76.8H37.3C16.8 495.6 0.1 479 0.1 458.4v-148.7c0-20.5 16.6-37.2 37.2-37.2H186c20.5 0 37.2 16.6 37.2 37.2V458.4c0 20.5-16.7 37.2-37.2 37.2zM347.1 54.5H1024v-84.6H347.1zM146.4 46.9v-69.5H76.9v69.5h69.5m39.6 76.8H37.3C16.8 123.7 0.1 107.1 0.1 86.5v-148.7c0-20.5 16.6-37.2 37.2-37.2H186c20.5 0 37.2 16.6 37.2 37.2V86.5c0 20.6-16.7 37.2-37.2 37.2zM146.3 790.6v-69.5H76.8v69.5h69.5m39.6 76.8H37.2C16.6 867.4 0 850.8 0 830.2v-148.7c0-20.5 16.6-37.2 37.2-37.2h148.7c20.5 0 37.2 16.6 37.2 37.2V830.2c0 20.6-16.6 37.2-37.2 37.2zM347.1 798.2H1024v-84.6H347.1z"  horiz-adv-x="1024" />

    
    <glyph glyph-name="liulan" unicode="&#58946;" d="M512 749.7C323.5 749.7 152.9 627.8 0 384c152.9-243.8 323.5-365.7 512-365.7S871.1 140.2 1024 384C871.1 627.8 700.5 749.7 512 749.7z m0-658.3C361.9 91.4 220.5 186 87.2 384 220.5 582 361.9 676.6 512 676.6S803.5 582 936.8 384C803.5 186 662.1 91.4 512 91.4zM512 566.9c-101 0-182.9-81.9-182.9-182.9S411 201.1 512 201.1 694.9 283 694.9 384 613 566.9 512 566.9z m95-237.8c-19.6-34-55.8-54.9-95-54.9-60.6 0-109.7 49.1-109.7 109.7S451.4 493.7 512 493.7c39.2 0 75.4-20.9 95-54.9s19.6-75.7 0-109.7z"  horiz-adv-x="1024" />

    
    <glyph glyph-name="tixingshixiang" unicode="&#58945;" d="M922.119898 164.942785H831.937512V450.786956c0 43.191564-8.49834 85.083382-25.195079 124.575668-16.096856 38.09256-39.192345 72.285882-68.586604 101.680141s-63.587581 52.389768-101.680141 68.586604c-5.598906 2.399531-11.197813 4.599102-16.8967 6.598711v36.192932C619.678969 847.709432 571.388401 896 512 896S404.321031 847.709432 404.321031 788.421012v-36.192932c-5.698887-1.999609-11.297793-4.19918-16.8967-6.598711-38.09256-16.096856-72.285882-39.192345-101.68014-68.586604-29.394259-29.394259-52.389768-63.587581-68.586605-101.680141C200.560828 535.870338 192.062488 493.97852 192.062488 450.786956V164.942785h-90.182386c-19.896114 0-35.99297-16.096856-35.992971-35.992971s16.096856-35.99297 35.992971-35.99297h820.239796c19.896114 0 35.99297 16.096856 35.992971 35.99297s-16.096856 35.99297-35.992971 35.992971zM461.909783 788.421012c0 27.59461 22.495606 50.090217 50.090217 50.090216s50.090217-22.495606 50.090217-50.090216V766.825229c-16.496778 2.599492-33.193517 3.899238-50.090217 3.899239s-33.593439-1.299746-50.090217-3.899239v21.595783zM264.048428 450.786956c0 136.773286 111.278266 247.951572 247.951572 247.951572s247.951572-111.278266 247.951572-247.951572V164.942785H264.048428V450.786956zM512-55.814099c-60.188244 0-109.178676 48.990432-109.178676 109.178676h-71.88596c0-48.390549 18.796329-93.881664 52.989651-128.074985 34.193322-34.193322 79.684437-52.98965 128.074985-52.989651s93.881664 18.796329 128.074985 52.989651c34.193322 34.193322 52.98965 79.684437 52.989651 128.074985h-71.88596c0-60.288225-48.990432-109.178676-109.178676-109.178676z"  horiz-adv-x="1024" />

    
    <glyph glyph-name="daohang-tiaochachouyangfanweiguanli" unicode="&#58944;" d="M917.210429 51.582463c-18.698174 0-33.89669 15.198516-33.89669 33.896689V682.720828c0 18.698174 15.198516 33.89669 33.89669 33.89669s33.89669-15.198516 33.896689-33.89669v-597.241676c0-18.798164-15.198516-33.89669-33.896689-33.896689zM810.620838 755.513719H213.279172c-18.698174 0-33.89669 15.198516-33.89669 33.89669s15.198516 33.89669 33.89669 33.89669h597.241676c18.698174 0 33.89669-15.198516 33.896689-33.89669s-15.098526-33.89669-33.796699-33.89669zM106.689581 51.582463c-18.698174 0-33.89669 15.198516-33.89669 33.896689V682.720828c0 18.698174 15.198516 33.89669 33.89669 33.89669s33.89669-15.198516 33.89669-33.89669v-597.241676c-0.09999-18.798164-15.198516-33.89669-33.89669-33.896689zM810.620838-55.107118H213.279172c-18.698174 0-33.89669 15.198516-33.89669 33.896689s15.198516 33.89669 33.89669 33.89669h597.241676c18.698174 0 33.89669-15.198516 33.896689-33.89669s-15.098526-33.89669-33.796699-33.896689zM145.585783 828.306611v-77.892394H67.693389V828.306611h77.892394M170.683332 896h-127.987502C19.098135 896 0 876.901865 0 853.30417v-127.987502c0-23.597696 19.098135-42.69583 42.69583-42.69583h127.987502c23.597696 0 42.69583 19.098135 42.69583 42.69583v127.987502C213.279172 876.901865 194.181037 896 170.683332 896zM145.585783 17.685773v-77.892393H67.693389v77.892393h77.892394m25.097549 67.693389h-127.987502C19.098135 85.379162 0 66.281027 0 42.783322v-127.987501c0-23.597696 19.098135-42.69583 42.69583-42.695831h127.987502c23.597696 0 42.69583 19.098135 42.69583 42.695831v127.987501c-0.09999 23.497705-19.198125 42.59584-42.69583 42.59584zM956.20662 17.685773v-77.892393h-77.892393v77.892393h77.892393m24.997559 67.693389h-127.987501c-23.597696 0-42.69583-19.098135-42.69583-42.69583v-127.987502c0-23.597696 19.098135-42.69583 42.69583-42.69583h127.987501c23.597696 0 42.69583 19.098135 42.695831 42.69583v127.987502c0 23.597696-19.098135 42.69583-42.695831 42.69583zM956.20662 828.306611v-77.892394h-77.892393V828.306611h77.892393m24.997559 67.693389h-127.987501c-23.597696 0-42.69583-19.098135-42.69583-42.69583v-127.987502c0-23.597696 19.098135-42.69583 42.69583-42.69583h127.987501c23.597696 0 42.69583 19.098135 42.695831 42.69583v127.987502c0 23.597696-19.098135 42.69583-42.695831 42.69583z"  horiz-adv-x="1024" />

    
    <glyph glyph-name="daohang-tiaochayonghuguanli" unicode="&#58943;" d="M432.207792-54.807148H101.940045c-5.099502 0-9.099111 4.0996-9.099111 9.099112V813.708036c0 4.999512 4.0996 9.099111 9.099111 9.099112h742.827458c4.999512 0 9.099111-4.0996 9.099112-9.099112v-347.366077c0-20.198028 16.398399-36.596426 36.596426-36.596426 20.198028 0 36.596426 16.398399 36.596426 36.596426V859.403574c0 20.198028-16.398399 36.596426-36.596426 36.596426H56.244507C36.04648 896 19.648081 879.601601 19.648081 859.403574v-950.807148c0-20.198028 16.398399-36.596426 36.596426-36.596426h375.963285c20.198028 0 36.596426 16.398399 36.596426 36.596426 0 20.298018-16.398399 36.596426-36.596426 36.596426zM187.631677 660.622986c-20.198028 0-36.596426-16.398399-36.596427-36.596426 0-20.198028 16.398399-36.596426 36.596427-36.596426h538.247436c20.198028 0 36.596426 16.398399 36.596426 36.596426 0 20.198028-16.398399 36.596426-36.596426 36.596426H187.631677zM534.497803 425.145982H193.43111c-20.198028 0-36.596426-16.398399-36.596426-36.596426 0-20.198028 16.398399-36.596426 36.596426-36.596426h341.066693c20.198028 0 36.596426 16.398399 36.596426 36.596426-0.09999 20.298018-16.398399 36.596426-36.596426 36.596426zM435.60746 189.768968H193.43111c-20.198028 0-36.596426-16.398399-36.596426-36.596426 0-20.198028 16.398399-36.596426 36.596426-36.596426h242.27634c20.198028 0 36.596426 16.398399 36.596427 36.596426-0.09999 20.198028-16.498389 36.596426-36.696417 36.596426zM977.954497 26.284933c-8.099209 14.598574-17.898252 28.297237-29.297139 40.696026-9.399082 10.199004-19.698076 19.498096-30.597012 27.497315-11.398887 8.39918-23.997656 15.698467-37.496339 21.797871 2.399766 2.099795 4.699541 4.19959 6.899327 6.399375 26.997364 26.997364 41.895909 62.893858 41.895908 100.990138 0 38.19627-14.898545 73.992774-41.895908 100.990137s-62.893858 41.895909-100.990138 41.895909c-38.19627 0-74.092764-14.898545-100.990138-41.895909-26.997364-26.997364-41.895909-62.793868-41.895908-100.990137s14.898545-74.092764 41.795918-100.990138c2.099795-2.099795 4.29958-4.19959 6.599356-6.199395-22.897764-10.498975-43.495752-24.897569-61.294015-42.79582-19.498096-19.398106-34.796602-42.095889-45.495557-67.393419-11.098916-26.097451-16.698369-53.894737-16.698369-82.591934 0-13.698662 10.099014-25.097549 24.997559-26.997364l383.262572-0.599941c7.399277 0 14.298604 2.899717 19.398105 8.099209 5.199492 5.199492 7.999219 12.098818 7.999219 19.398105 0.19998 35.996485-8.999121 71.493018-26.197441 102.689972zM786.573186 135.874231c-48.495264 0-87.891417 39.396153-87.891417 87.891417 0 48.495264 39.396153 87.891417 87.891417 87.891417 48.495264 0 87.891417-39.396153 87.891417-87.891417 0-48.495264-39.496143-87.891417-87.891417-87.891417z m-3.499658-54.694659c1.099893-0.09999 2.299775-0.299971 5.399473 0.299971l3.799629-0.599941c33.89669 0 66.193536-10.598965 93.290889-30.597012 8.29919-6.199395 15.898447-12.998731 22.697784-20.497999 8.29919-9.099111 15.598477-19.298115 21.697881-30.09706 8.29919-14.898545 13.898643-31.096963 16.898349-48.295284H626.088859c13.098721 74.592716 77.792403 129.587345 154.684894 129.587345l2.299775 0.19998z"  horiz-adv-x="1024" />

    
    <glyph glyph-name="daohang-tiaochazhibiaoku" unicode="&#58941;" d="M67.4 558.9c-10.6 0-21.1 5.4-27.1 15.1-9.2 14.9-4.5 34.5 10.4 43.7L495.3 891.3c10.2 6.3 23.1 6.3 33.3 0l444.7-273.6c14.9-9.2 19.6-28.7 10.4-43.7-9.2-15-28.8-19.6-43.7-10.4L512 826.9 84 563.6c-5.2-3.2-10.9-4.7-16.6-4.7zM512 689.7l359.9-218.2v-535.9H152.1V471.4L512 689.7m0 67.7c-6.9 0-13.8-1.9-20-5.6L107 518.4c-11.5-7-18.5-19.5-18.5-32.9v-575c0-21.3 17.2-38.5 38.5-38.5h770c21.3 0 38.5 17.2 38.5 38.5v575c0 13.5-7 25.9-18.5 32.9L532 751.8c-6.2 3.8-13.1 5.6-20 5.6zM315.9 175.3c-21.3 0-38.5-17.2-38.5-38.5v-115.5h77V136.8c0 21.2-17.3 38.5-38.5 38.5zM444.2 252.3c-21.3 0-38.5-17.2-38.5-38.5v-192.5h77V213.8c0 21.2-17.2 38.5-38.5 38.5zM572.5 206.5c-21.3 0-38.5-17.2-38.5-38.5v-146.8h77V168c0 21.3-17.2 38.5-38.5 38.5zM700.8 329.2c-21.3 0-38.5-17.2-38.5-38.5v-269.5h77V290.7c0 21.3-17.2 38.5-38.5 38.5zM442.9 382.9c-7.2 6-17.8 5.4-24.3-1.2l-136-137.2c-5.1-5.2-6.6-12.9-3.8-19.6 2.8-6.7 9.4-11.1 16.7-11.1 4.8 0 9.4 1.9 12.8 5.3l124.3 125.4 128.1-106.1c3.9-3.2 9-4.7 14.1-3.9 5 0.7 9.5 3.6 12.4 7.8l120 179.4 23.2-31.6c-4.3 33.2 1.1 78.6 9.2 112.6-28.3-20.5-68.2-42.8-100.5-51.5l38-9.4-108.9-162.9-125.3 104z"  horiz-adv-x="1024" />

    
    <glyph glyph-name="daohang-tiaochajieguomoban" unicode="&#58940;" d="M532.398008 479.140709h122.088077c18.498194 0 33.396739 14.898545 33.396739 33.396739s-14.898545 33.396739-33.396739 33.396738H532.398008c-18.498194 0-33.396739-14.898545-33.396739-33.396738 0-18.398203 14.898545-33.396739 33.396739-33.396739zM532.398008 632.52573h122.088077c18.498194 0 33.396739 14.898545 33.396739 33.396739s-14.898545 33.396739-33.396739 33.396738H532.398008c-18.498194 0-33.396739-14.898545-33.396739-33.396738s14.898545-33.396739 33.396739-33.396739zM265.324089 325.755688h389.161996c18.498194 0 33.396739 14.898545 33.396739 33.396739s-14.898545 33.396739-33.396739 33.396738H265.324089c-18.498194 0-33.396739-14.898545-33.396738-33.396738s14.898545-33.396739 33.396738-33.396739zM265.324089 172.370667h389.161996c18.498194 0 33.396739 14.898545 33.396739 33.396739s-14.998535 33.296748-33.396739 33.296748H265.324089c-18.498194 0-33.396739-14.898545-33.396738-33.396739s14.898545-33.296748 33.396738-33.296748zM289.221756 479.140709h105.489698c31.596914 0 57.394395 25.69749 57.394395 57.294405V641.924812c0 31.596914-25.69749 57.294405-57.394395 57.294405H289.221756c-31.596914 0-57.394395-25.69749-57.394395-57.294405v-105.489698c0.09999-31.596914 25.797481-57.294405 57.394395-57.294405z m9.499072 153.385021h86.591544v-86.591544h-86.591544v86.591544zM868.96514 850.004492h-6.499365c-1.399863 0-2.599746-0.599941-3.99961-0.799922-9.199102 27.097354-34.696612 46.79543-64.993653 46.79543H126.237672c-38.09628 0-68.993262-30.896983-68.993262-68.993262v-782.323602c0-30.597012 19.998047-56.194512 47.495362-65.293623-0.19998-1.299873-0.799922-2.399766-0.799922-3.799629v-5.799434c0-53.894737 43.795723-97.79045 97.79045-97.79045H868.96514c53.894737 0 97.79045 43.895713 97.79045 97.79045V752.214042c0 53.894737-43.895713 97.79045-97.79045 97.79045zM124.037887 827.006738c0 1.199883 0.999902 2.199785 2.199785 2.199785h667.23484c1.199883 0 2.199785-0.999902 2.199786-2.199785v-782.323602c0-1.199883-0.999902-2.199785-2.199786-2.199785H126.237672c-1.199883 0-2.199785 0.999902-2.199785 2.199785V827.006738z m785.223318-857.116298c0-22.197832-18.098233-40.296065-40.296065-40.296064H201.7303c-22.197832 0-40.296065 18.098233-40.296065 40.296064v5.799434h632.038277c38.09628 0 68.993262 30.896983 68.993263 68.993262V792.410116h6.499365c22.197832 0 40.296065-18.098233 40.296065-40.296065v-782.223611z"  horiz-adv-x="1024" />

    
    <glyph glyph-name="daohang-zhibiaoguanli" unicode="&#58939;" d="M870.4 896H153.6C68.8 896 0 827.2 0 742.4v-325.1C0 398.9 14.9 384 33.3 384s33.3 14.9 33.3 33.3V742.4c0 48.1 39 87 87 87h716.8c48.1 0 87-39 87-87v-716.8c0-48.1-39-87-87-87H153.6c-48.1 0-87 39-87 87v69.1c0 18.4-14.9 33.3-33.3 33.3S0 113.1 0 94.7v-69.1C0-59.2 68.8-128 153.6-128h716.8c84.8 0 153.6 68.8 153.6 153.6V742.4C1024 827.2 955.2 896 870.4 896zM812.9 495.9l-164.5-5.7c-20.4-0.7-31.6-23.9-19.5-40.3l34.1-46.4-181.7-125.7c-9-6.2-20.9-6-29.6 0.6L276.5 409.9c-8.2 6.2-19.4 6.8-28.2 1.5l-232-139.2C0.5 262.7-4.6 242.3 4.9 226.5c9.5-15.8 29.9-20.9 45.7-11.4l193.6 116.2c8.8 5.3 20 4.7 28.2-1.5l177.9-133.4c8.7-6.5 20.7-6.8 29.6-0.6l222.6 154.1 36.6-49.7c12.1-16.4 37.6-12.6 44.3 6.6l54.4 155.4c5.8 16.8-7.1 34.3-24.9 33.7z"  horiz-adv-x="1024" />

    
    <glyph glyph-name="daohang-yingyongshangdian" unicode="&#58938;" d="M1014.3 550.1c0 0.6-0.2 1-0.2 1.6-0.4 2.2-1 4.2-1.8 6.2l-86.7 215.6c-15.1 44.7-58 72.1-108.4 72.2H209.6c-51 0-90.7-27.2-105-70.1L11.5 555.7c-0.4-1.4-1-3.2-1.4-5.2C3.4 529.7 0 508.5 0 487c0-75.2 41.3-143.9 107.6-179.2 27.2-14.5 59.3-21.8 95.5-21.8 60.5 0.2 116.7 26.8 155 72.4 38.1-45.3 93.7-71.7 154.2-72.1 59.9 0.4 115.5 27 153.4 72.2 38.3-45.6 94.5-72.1 155.4-72.1 36.9 0.2 69.5 7.9 97.1 23 65.3 35.7 105.8 104 105.8 178.4 0.2 21.4-3.4 42.9-9.7 62.3z m-131.2-176c-16.7-9.1-37.5-13.9-61.9-13.9-45.1 0-85.9 22.8-110 61.5-1.8 3.6-4.6 9.7-9.9 15.5-6.2 6.7-17.1 14.9-35.3 14.9-14.7 0-28-6-35.5-15.3-5-5.6-7.7-11.1-9.7-15.3-23.6-38.3-64.3-61.3-108.4-61.5-44.7 0.2-85.4 23.2-109.2 61.7-1.6 3.4-4.4 9.1-8.7 13.9-17.3 20.6-56.2 19.7-71.3 1.6-5.6-6.2-8.5-12.3-10.3-16.5-23.8-38.3-64.9-61.1-109.6-61.3-23.8 0-44.3 4.6-60.7 13.3C100.2 395.1 74 439 74 486.8c0 14.1 2.4 28.4 7.1 42.3 0.4 1 0.6 2.2 0.8 3.2L173.7 749c1.8 5.6 7.5 22.4 36.1 22.4h607.8c11.7-0.8 32-2.8 39.1-23.8l85.7-213.8c0.4-1.6 0.8-3 1.2-4.2 4.8-13.9 7.1-28 7.1-42.1-0.3-47.1-26.2-90.6-67.6-113.4zM917.2 255.8c-20.4 0-36.9-16.5-36.9-36.9v-201.5c0-11.5-9.3-20.8-20.8-20.8l-694.7-0.4c-11.5 0-20.8 9.3-20.8 20.6l-0.2 197.9c0 20.4-16.7 36.9-36.9 36.9-20.4 0-36.9-16.7-36.9-36.9l0.2-197.9c0-52 42.5-94.5 94.7-94.5l694.9 0.4c52 0.2 94.5 42.5 94.5 94.7V218.9c-0.2 20.2-16.6 36.9-37.1 36.9zM807.4 588H216.7c-20.4 0-36.9-16.5-36.9-36.9s16.5-36.9 36.9-36.9h590.9c20.2 0 36.9 16.5 36.7 36.9 0 20.5-16.5 36.9-36.9 36.9z"  horiz-adv-x="1024" />

    
    <glyph glyph-name="daohang-yingyongguanli" unicode="&#58937;" d="M944.368332 646.618265L521.099334 893.500183c-5.59959 3.299758-12.499085 3.299758-18.098675 0L79.631668 646.618265c-5.499597-3.199766-8.899348-9.099334-8.899349-15.498865v-494.163806c0-6.399531 3.399751-12.299099 8.899349-15.598857l423.268998-246.881918c5.59959-3.299758 12.499085-3.299758 18.098675 0l423.268999 246.881918c5.499597 3.199766 8.899348 9.099334 8.899348 15.598857V631.1194c0.099993 6.399531-3.299758 12.299099-8.799356 15.498865z m-64.695261-473.065351c0-6.299539-3.299758-12.199107-8.699363-15.398873L521.299319-51.630593c-5.699583-3.399751-12.799063-3.399751-18.498645 0L153.026292 158.154041c-5.399605 3.299758-8.699363 9.099334-8.699363 15.398873v420.969167c0 6.299539 3.299758 12.199107 8.699363 15.398872L502.700681 819.705588c5.699583 3.399751 12.799063 3.399751 18.498645 0L870.973708 609.920953c5.399605-3.299758 8.699363-9.099334 8.699363-15.398872v-420.969167zM768.781193 532.226644c-8.199399 2.199839-16.998755 0.899934-24.298221-3.499744L521.199326 400.036325 296.015819 528.7269c-7.299465 4.399678-16.098821 5.699583-24.29822 3.499744-12.499085-3.399751-21.798403-13.998975-23.498279-26.798038-1.699875-12.899055 4.49967-25.498132 15.69885-31.997656L489.001684 343.540463v-249.081756c-0.199985-8.59937 3.199766-16.898762 9.199327-22.898323 6.099553-6.099553 14.398945-9.399312 22.898323-9.199326 17.798696 0 32.197642 14.398945 32.197641 32.197641V344.840368l223.283647 128.690575c15.198887 8.899348 20.398506 28.497913 11.59915 43.796792-4.0997 7.299465-11.099187 12.69907-19.398579 14.898909z"  horiz-adv-x="1024" />

    
    <glyph glyph-name="daohang-xitongyunweiguanli" unicode="&#58936;" d="M864.9 196.8c-16.8 9.8-38.5 4.3-48.3-12.5C744.9 62 612.4-14.2 470.9-14.2c-35.8 0-71.3 4.7-105.5 14.1 0.8 5.7 1.2 11.7 1.2 17.8 0 72.7-59.2 131.9-131.9 131.9s-131.9-59.2-131.9-131.9 59.2-131.9 131.9-131.9c41.2 0 78 19 102.4 48.7 43.2-12.9 88.3-19.5 133.7-19.5 166.5 0 322.4 89.3 406.5 233.3 3.3 5.5 4.9 11.7 4.9 17.8 0.1 12.3-6.3 24.2-17.3 30.7zM234.7-43.6c-33.8 0-61.2 27.4-61.2 61.2 0 33.8 27.4 61.2 61.2 61.2 33.8 0 61.2-27.4 61.2-61.2 0-33.8-27.4-61.2-61.2-61.2zM109.4 214.4C83.8 268.3 70.7 326 70.7 386.3c0 93.4 32.2 182.7 91.1 254.2 20.9-13.9 45.9-22.1 72.9-22.1 72.7 0 131.9 59.2 131.9 131.9S307.4 882.2 234.7 882.2s-131.9-59.3-131.9-132c0-19.9 4.5-38.7 12.3-55.5C40.8 609.1 0 500.1 0 386.3c0-70.7 15.4-138.7 45.5-202.1 8.4-17.6 29.5-25 47.1-16.8 17.6 8.3 25 29.4 16.8 47zM234.7 811.6c33.8 0 61.2-27.4 61.2-61.2 0-33.8-27.4-61.2-61.2-61.2-33.8 0-61.2 27.4-61.2 61.2 0 33.8 27.4 61.2 61.2 61.2zM924.1 514.3c-56.9 202.8-241.3 343-453.2 343-19.5-0.2-35.2-16-35.2-35.4 0-19.5 15.8-35.2 35.2-35.2 174.5 0 326.7-111.6 380.3-275-52.6-17.2-90.9-67-90.9-125.3 0-72.7 59.2-131.9 131.9-131.9s131.9 59.2 131.9 131.9c-0.1 61.5-42.7 113.5-100 127.9z m-32-189.3c-33.8 0-61.2 27.4-61.2 61.2 0 33.8 27.4 61.2 61.2 61.2 33.8 0 61.2-27.4 61.2-61.2 0-33.7-27.4-61.2-61.2-61.2z"  horiz-adv-x="1024" />

    
    <glyph glyph-name="daohang-xitongyonghuguanli" unicode="&#58935;" d="M980.1 191.9c-13.4 24.4-29.8 47.1-48.7 67.8-15.5 16.8-32.6 32.3-50.9 45.8-27.5 20.3-57.4 36.3-88.9 47.8 11.9 8.1 23.1 17.4 33.4 27.8 43.9 43.9 68.1 102.2 68.1 164.3 0 62-24.2 120.4-68.1 164.3-43.9 43.9-102.3 68.1-164.3 68.1-62 0-120.4-24.2-164.3-68.1-43.9-43.9-68.1-102.2-68.1-164.3 0-62 24.2-120.4 68.1-164.3 10.3-10.3 21.5-19.6 33.3-27.7-5.6-2-11.1-4.2-16.6-6.5-42.1-17.8-79.9-43.3-112.3-75.7-32.5-32.5-57.9-70.2-75.7-112.3-18.5-43.6-27.8-89.9-27.8-137.6 0-17 13.7-30.7 30.8-30.7h665.4c17 0 30.7 13.7 30.6 30.7-0.1 59.5-15.3 118.6-44 170.6zM489.9 545.3c0 94.2 76.7 170.9 170.9 170.9s170.9-76.7 170.9-170.9S755 374.4 660.8 374.4c-94.3 0-170.9 76.7-170.9 170.9zM650.7 313c0.6 0 1.2 0 1.8 0.1 2.7-0.1 5.5-0.2 8.2-0.2 2.4 0 4.8 0 7.2 0.1 0.9-0.1 1.8-0.1 2.7-0.1 62.8 0 122.8-19.7 173.2-57 15.2-11.3 29.4-24 42.1-37.9 15.6-17 29.1-35.9 40.3-56 18.8-33.9 30.5-71.4 34.6-110H360.5c15.4 146.5 139.7 261 290.2 261zM226.9 111H64.2c14.7 84.6 88.6 149.1 177.3 149.1 0.7 0 1.3 0 2 0.1 1.5 0 3.1-0.1 4.7-0.1 89.6 0 162.5 73 162.5 162.6s-72.9 162.5-162.5 162.5-162.5-73-162.5-162.6c0-48.8 21.7-92.7 55.9-122.5-26-11.8-50-28.4-70.8-49.2C25.1 205.3 0 144.7 0 80.3v-0.2c0-17 13.7-30.7 30.7-30.7h196.1c17 0 30.8 13.8 30.8 30.8 0.1 17-13.7 30.8-30.7 30.8z m21.3 412.7c55.8 0 101-45.3 101-101s-45.3-101-101-101-101 45.3-101 101 45.3 101 101 101z"  horiz-adv-x="1024" />

    
    <glyph glyph-name="daohang-xitongjiaoseguanli" unicode="&#58934;" d="M751.353251 229.53017c-55.589143 0-100.780316-45.191174-100.780316-100.780316 0-55.589143 45.191174-100.780316 100.780316-100.780317 55.589143 0 100.780316 45.191174 100.780317 100.780317 0 55.589143-45.191174 100.780316-100.780317 100.780316z m0-149.570787c-26.894747 0-48.890451 21.895723-48.890451 48.890451 0 26.894747 21.895723 48.890451 48.890451 48.890451s48.890451-21.895723 48.890451-48.890451-21.895723-48.890451-48.890451-48.890451zM1017.801211 181.439563c-3.799258 19.996095-16.596758 32.893575-32.993556 32.893575h-2.299551c-31.493849 0-57.08885 25.595001-57.08885 57.08885 0 8.298379 3.599297 18.396407 4.999024 21.595782 7.798477 17.496583 1.799649 39.092365-15.496974 51.090021l-66.686975 36.892795c-5.198985 2.299551-10.897872 3.399336-16.796719 3.399336-12.097637 0-23.995313-4.899043-31.893771-13.097442-8.298379-8.598321-30.394064-26.294864-45.591095-26.294864-15.297012 0-37.592658 17.996485-45.891037 26.694786-7.998438 8.39836-19.996095 13.397383-32.193712 13.397383-5.898848 0-11.397774-1.099785-16.396798-3.299355l-1.199766-0.499903-67.886741-37.292716-1.599687-0.999805c-15.796915-10.997852-21.795743-32.493654-14.097247-49.890256 0.499902-1.199766 5.099004-12.297598 5.099004-21.795743 0-31.493849-25.595001-57.08885-57.088849-57.088849H519.998438c-15.996876 0-28.894357-12.897481-32.593634-32.893576-0.599883-3.099395-5.598906-30.694005-5.598907-52.98965s5.099004-49.890256 5.598907-52.989651c3.799258-19.996095 16.596758-32.893575 32.993556-32.893575h2.299551c31.493849 0 57.08885-25.595001 57.088849-57.08885 0-8.298379-3.599297-18.396407-4.999023-21.595782-7.798477-17.496583-1.799649-38.992384 15.396993-51.090022l65.487209-36.492872c5.198985-2.299551 10.897872-3.399336 16.796719-3.399336 12.297598 0 24.395235 5.198985 32.293693 13.797305 8.098418 8.798282 30.993946 27.894552 46.5909 27.894552 15.796915 0 38.492482-19.196251 46.890842-28.494435 7.898457-8.798282 20.096075-13.997266 32.493654-13.997266 5.798867 0 11.397774 1.099785 18.096465 4.099199l66.187073 36.592853 1.599687 0.999805c15.796915 10.997852 21.795743 32.493654 14.097247 49.890256-0.499902 1.199766-5.099004 12.297598-5.099004 21.795743 0 31.493849 25.595001 57.08885 57.08885 57.08885h2.599492c16.096856 0 28.894357 12.897481 32.693615 32.793595 0 0.299941 5.598906 29.59422 5.598906 53.089631-0.09998 22.395626-5.198985 49.990236-5.798867 53.089631z m-49.590315-87.882836c-53.789494-6.998633-94.681508-52.88967-94.681507-108.078891 0-12.69752 3.099395-24.795157 5.798867-32.993556L831.53759-73.810584c-4.29916 4.19918-11.097832 10.49795-19.596172 16.79672-21.09588 15.696934-41.591877 23.595392-60.788128 23.595391-18.99629 0-39.292326-7.798477-60.288225-23.19547-6.898653-5.099004-13.397383-10.59793-19.496192-16.496778l-45.691076 25.495021c2.699473 8.198399 5.798867 20.396016 5.798868 33.093536 0 55.08924-40.892013 100.980277-94.681508 108.078891-1.399727 8.898262-3.299356 23.395431-3.299355 34.893185s1.899629 25.994923 3.299355 34.893185c53.689514 6.998633 94.681508 52.98965 94.681508 108.078891 0 12.69752-3.099395 24.795157-5.798868 32.993556l49.290373 27.094708c4.29916-3.999219 11.097832-10.098028 19.596173-16.096856 20.695958-14.79711 40.692052-22.195665 59.28842-22.195665 18.496387 0 38.292521 7.298574 58.788518 21.795743 8.39836 5.898848 15.097051 11.697715 19.496192 15.796915l47.190783-26.194884c-2.699473-8.198399-5.798867-20.296036-5.798867-32.993556 0-55.08924 40.892013-100.980277 94.681507-108.078891 1.399727-9.098223 3.299356-23.495411 3.299356-34.893185 0-11.697715-1.899629-25.994923-3.299356-35.093146zM67.886741-54.01445v57.08885C67.886741 197.136497 217.557508 357.105253 408.220269 375.101738h-0.09998 0.499902c11.697715 1.099785 23.495411 1.699668 35.493068 1.699668 1.799649 0 3.599297-0.09998 5.398946-0.09998 42.191759 3.299356 105.979301 13.197422 139.272798 42.991603l16.296817 12.69752c63.787541 49.790275 100.280414 124.175747 100.280414 204.060144C705.462214 779.522749 588.18512 896 444.013279 896 299.941418 896 182.664323 779.522749 182.664323 636.450693c0-79.884398 36.592853-154.269869 100.280414-204.060144l16.296817-12.69752L280.045304 412.094513C110.278461 344.607694 0.499902 184.139035 0.499902 3.0744v-90.482328c0-18.396407 15.097051-33.393478 33.69342-33.393478h492.103886c-15.996876 20.495997-29.6942 42.891623-40.692053 66.786956H67.886741zM250.051162 636.450693c0 106.279242 86.983011 192.762351 193.962117 192.762351s193.962117-86.483109 193.962116-192.762351-86.983011-192.862332-193.962116-192.862331S250.051162 530.07147 250.051162 636.450693z"  horiz-adv-x="1024" />

    
    <glyph glyph-name="daohang-wuzhongshujuku" unicode="&#58933;" d="M131.137194 10.286495h159.384435c19.598086 0 35.396543 15.898447 35.396543 35.396544V612.527683c0 19.598086-15.898447 35.396543-35.396543 35.396543H131.137194c-19.598086 0-35.396543-15.898447-35.396544-35.396543v-566.844644c0-19.498096 15.798457-35.396543 35.396544-35.396544zM163.034079 580.730788h95.690655v-503.050874H163.034079V580.730788zM892.862806 648.024216H733.478371c-19.598086 0-35.396543-15.898447-35.396543-35.396543v-566.844644c0-19.598086 15.898447-35.396543 35.396543-35.396543h159.384435c19.598086 0 35.396543 15.898447 35.396544 35.396543V612.527683c0 19.598086-15.798457 35.496534-35.396544 35.496533zM860.965921 77.579924h-95.690655V580.730788H860.965921v-503.150864zM432.307782 10.286495h159.384436c19.598086 0 35.396543 15.898447 35.396543 35.396544v814.920418c0 19.598086-15.898447 35.396543-35.396543 35.396543H432.307782c-19.598086 0-35.396543-15.898447-35.396543-35.396543v-814.820428c-0.09999-19.598086 15.798457-35.496534 35.396543-35.496534z m31.896886 818.420077h95.690655v-751.126648h-95.690655V828.706572zM894.662631-60.606581H129.337369c-18.598184 0-33.696709-15.098526-33.696709-33.69671s15.098526-33.696709 33.696709-33.696709h765.225271c18.598184 0 33.696709 15.098526 33.69671 33.696709 0 18.698174-14.998535 33.696709-33.596719 33.69671z"  horiz-adv-x="1024" />

    
    <glyph glyph-name="daohang-wupinqingdan" unicode="&#58932;" d="M427.903445-17.162591H110.716439c-4.899799 0-8.79964 3.89984-8.799639 8.79964V817.003236c0 4.799803 3.89984 8.79964 8.799639 8.79964h713.470772c4.799803 0 8.79964-3.89984 8.799639-8.79964v-333.68633c0-19.399205 15.699357-35.098562 35.098562-35.098562 19.399205 0 35.098562 15.699357 35.098562 35.098562V860.901438c0 19.399205-15.699357 35.098562-35.098562 35.098562H66.818238C47.419032 896 31.719676 880.300643 31.719676 860.901438v-913.162591c0-19.399205 15.699357-35.098562 35.098562-35.098562h361.085207c19.399205 0 35.098562 15.699357 35.098562 35.098562 0.099996 19.299209-15.699357 35.098562-35.098562 35.098562zM193.013068 669.909262c-19.399205 0-35.098562-15.699357-35.098562-35.098562 0-19.399205 15.699357-35.098562 35.098562-35.098562h516.978821c19.399205 0 35.098562 15.699357 35.098562 35.098562 0 19.399205-15.699357 35.098562-35.098562 35.098562H193.013068zM526.199418 443.818524H198.512843c-19.399205 0-35.098562-15.699357-35.098563-35.098562 0-19.399205 15.699357-35.098562 35.098563-35.098562h327.586579c19.399205 0 35.098562 15.699357 35.098563 35.098562 0.099996 19.299209-15.599361 35.098562-34.998567 35.098562zM431.20331 217.727787H198.512843c-19.399205 0-35.098562-15.699357-35.098563-35.098562 0-19.399205 15.699357-35.098562 35.098563-35.098563h232.690467c19.399205 0 35.098562 15.699357 35.098562 35.098563 0.099996 19.299209-15.699357 35.098562-35.098562 35.098562zM521.99959 272.525542c71.197083-35.998525 142.394167-71.997051 213.491254-107.995576 32.598665-16.499324 61.497481 32.598665 28.698825 49.197985-71.197083 35.998525-142.394167 71.997051-213.491254 107.995575-32.598665 16.499324-61.497481-32.598665-28.698825-49.197984zM948.982098 321.723526c-71.197083-35.998525-142.294171-71.997051-213.491254-107.995575-32.69866-16.499324-3.89984-65.697309 28.698825-49.197985 71.197083 35.998525 142.294171 71.997051 213.491254 107.995576 32.798656 16.59932 3.999836 65.697309-28.698825 49.197984zM778.389087-100.059195V189.128958c0 36.598501-56.997665 36.698497-56.997665 0v-289.188153c0.099996-36.598501 56.997665-36.698497 56.997665 0zM521.99959-16.662611l213.59125-107.995576c32.598665-16.499324 61.497481 32.598665 28.698825 49.197985l-213.59125 107.995575c-32.598665 16.499324-61.497481-32.598665-28.698825-49.197984zM735.490844 380.521118l213.59125-107.995576c32.598665-16.499324 61.497481 32.598665 28.698824 49.197984l-213.591249 107.995576c-32.598665 16.499324-61.497481-32.69866-28.698825-49.197984zM949.18209 32.535373l-213.59125-107.995575c-32.69866-16.499324-3.89984-65.697309 28.698825-49.197985l213.591249 107.995576c32.69866 16.59932 3.89984 65.697309-28.698824 49.197984zM735.59084 429.719102L521.99959 321.723526c-32.69866-16.499324-3.89984-65.697309 28.698825-49.197984l213.59125 107.995576c32.69866 16.499324 3.89984 65.697309-28.698825 49.197984zM507.900168 297.124534v-289.188153c0-36.598501 56.997665-36.698497 56.997665 0V297.124534c-0.099996 36.698497-56.997665 36.698497-56.997665 0zM991.880341 7.936381V297.124534c0 36.598501-56.997665 36.698497-56.997665 0v-289.188153c0.099996-36.598501 56.997665-36.698497 56.997665 0z"  horiz-adv-x="1024" />

    
    <glyph glyph-name="daohang-tiaochabiaomobanguanli" unicode="&#58930;" d="M742.6-55.1c0-4.9-4-8.9-8.9-8.9H73.5c-4.9 0-8.8 4-8.8 8.9V823.1c0 4.9 4 8.9 8.8 8.9h660.3c4.9 0 8.9-4 8.9-8.9v-143.3h64.1V823.1C806.7 863.3 774 896 733.8 896H73.5C33.2 896 0.5 863.3 0.5 823.1V-55c0-40.2 32.7-72.9 72.9-72.9h660.3c40.2 0 72.9 32.7 72.9 72.9V78.1h-64.1v-133.2zM243 338.2c-17.7 0-32-14.3-32-32s14.3-32 32-32h141.1c17.7 0 32 14.3 32 32s-14.3 32-32 32H243zM845.4 661.1c-8-1.1-15.3-5.2-20.4-11.4L499.9 253.8c-3.1-3.8-5.3-8.2-6.4-13l-50.1-212.2c-2.8-11.8 1.3-24.2 10.6-31.9 5.8-4.8 13-7.5 20.6-7.5 4.4 0 8.7 0.9 12.8 2.7l201 87.3c5 2.2 9.4 5.6 12.7 9.9l315.8 413.2c5.2 6.8 7.4 15.3 6.3 23.8-11.7 84.9-90.3 146.9-177.8 135zM547.7 191.6c18.7 1.4 37.3-3.7 52.5-15.2 16.4-12.5 27-30.6 29.8-51.1 0.1-0.5 0.4-0.9 0.5-1.4l-110-47.8 27.2 115.5z m135-20.9c-9.5 22.1-24.1 41.8-43.8 56.8-17.1 13-36.5 21.2-56.9 25.4L783.3 498c22.2 1.2 43.9-4.9 61.8-18.5 17.2-13.1 28.7-31.4 33.8-52L682.7 170.7z m241 315.3c-10.2 17-23.5 32.2-39.8 44.5-16 12.1-33.8 20.7-52.5 26l34.5 42c42 0 80.1-28.5 91.2-68.8L923.7 486zM583.5 479.5c0 17.7-14.3 32-32 32H243c-17.7 0-32-14.3-32-32s14.3-32 32-32h308.4c17.8 0 32.1 14.3 32.1 32zM551.5 678.6H243c-17.7 0-32-14.3-32-32s14.3-32 32-32h308.4c17.7 0 32 14.3 32 32 0.1 17.6-14.2 32-31.9 32z"  horiz-adv-x="1024" />

    
    <glyph glyph-name="daohang-shezhi" unicode="&#58929;" d="M963.4 688L547.2 880.3l-1 0.5c-20 8.5-42.5 8.5-62.5 0.2L60.6 688.1c-29.4-12.6-48.5-41.5-48.5-73.4-0.1-32 18.9-60.9 48.2-73.6l422.6-183.5c10.1-4.4 20.9-6.6 31.9-6.6 11.1 0 22.1 2.3 32.3 6.8l416.6 183.4c29.1 12.8 47.9 41.6 47.8 73.4 0 32-18.9 60.7-48.1 73.4z m-30-78.1L516.8 426.5c-1.3-0.5-2.7-0.5-4 0L90.2 610c-1.9 0.8-3 2.6-3 4.6 0 2 1.2 3.8 3.1 4.6L513.1 811.7c1.1 0.4 2.3 0.4 3.4 0l415.8-192.1 1-0.5c1.8-0.8 3-2.6 3-4.6 0.1-1.9-1-3.7-2.9-4.6zM515 117.3c-11.5 0-22.8 2.4-33.4 6.9l-459 199.3c-19 8.3-27.7 30.4-19.5 49.4 8.3 19 30.4 27.7 49.4 19.5l459.1-199.3c2.2-1 4.8-1 7 0l452.6 199.3c12.3 5.5 26.6 4 37.4-3.9 10.9-7.9 16.7-21.1 15.2-34.4-1.5-13.4-10-24.9-22.3-30.3L548.8 124.4c-10.6-4.7-22.1-7.1-33.8-7.1zM515-119.1c-11.5 0-22.9 2.3-33.4 6.9l-459 199.3c-19 8.3-27.7 30.4-19.5 49.4 8.3 19 30.4 27.7 49.4 19.5l459.1-199.3c2.2-1 4.8-1 7 0L971.2 156c19 8.4 41.1-0.2 49.5-19.2 8.4-19-0.2-41.1-19.2-49.5L548.8-112c-10.6-4.7-22.1-7.1-33.8-7.1z"  horiz-adv-x="1024" />

    
    <glyph glyph-name="daohang-quanxianguanli" unicode="&#58928;" d="M514.5 299.1c-43.5 0-78.8-35.3-78.8-78.8 0-28.1 14.8-52.6 36.9-66.5v-45.5c0-21.7 17.6-39.4 39.4-39.4 21.8 0 39.4 17.7 39.4 39.4v42.8c24.8 13.3 41.8 39.1 41.8 69.2 0 43.5-35.2 78.8-78.7 78.8zM905.8 502.2H787.7V620.3C787.7 772.6 664.3 896 512 896 359.7 896 236.3 772.6 236.3 620.3h78.8c0 108.8 88.2 196.9 196.9 196.9 108.8 0 196.9-88.2 196.9-196.9v-118.1H118.2c-43.5 0-78.8-35.3-78.8-78.8v-472.6c0-43.5 35.3-78.8 78.8-78.8h787.7c43.5 0 78.8 35.3 78.8 78.8V423.4c-0.1 43.5-35.4 78.8-78.9 78.8z m0-472.7c0-43.5-35.3-78.8-78.8-78.8H196.9c-43.5 0-78.8 35.3-78.8 78.8V344.6c0 43.5 35.3 78.8 78.8 78.8h630.2c43.5 0 78.8-35.3 78.8-78.8v-315.1z"  horiz-adv-x="1024" />

    
    <glyph glyph-name="daohang-danweiguanlihoutai" unicode="&#58926;" d="M335.5 896H0v-335.4c0-73.7 60-133.7 133.7-133.7h335.5V762.3C469.1 836 409.1 896 335.5 896z m68-403.6H133.7c-37.5 0-68.1 30.5-68.1 68.1V830.4h269.8c37.5 0 68.1-30.5 68.1-68.1v-269.9zM688.5 896c-73.6 0-133.6-60-133.6-133.7v-335.4h335.5c73.7 0 133.7 59.9 133.7 133.7V896H688.5z m269.9-335.5c0-37.6-30.5-68.1-68.1-68.1H620.5V762.3c0 37.6 30.5 68.1 68.1 68.1h269.8v-269.9zM0 207.5V-128h335.5c73.7 0 133.7 59.9 133.7 133.7V341.1H133.7C60 341.1 0 281.2 0 207.5z m403.5-201.8c0-37.6-30.5-68.1-68.1-68.1H65.6V207.5c0 37.6 30.5 68.1 68.1 68.1h269.8v-269.9zM890.3 341.1H554.9v-335.4c0-73.7 60-133.7 133.7-133.7H1024V207.5c0 73.7-60 133.6-133.7 133.6z m68.1-403.5H688.5c-37.5 0-68.1 30.5-68.1 68.1V275.6h269.8c37.5 0 68.1-30.5 68.1-68.1v-269.9z"  horiz-adv-x="1024" />

    
    <glyph glyph-name="daohang-baohudixinxiguanli" unicode="&#58924;" d="M430.807929-54.807148H100.540182c-5.099502 0-9.099111 4.0996-9.099112 9.099112V813.708036c0 4.999512 4.0996 9.099111 9.099112 9.099112h742.827458c4.999512 0 9.099111-4.0996 9.099111-9.099112v-347.366077c0-20.198028 16.398399-36.596426 36.596426-36.596426 20.198028 0 36.596426 16.398399 36.596427 36.596426V859.403574c0 20.198028-16.398399 36.596426-36.596427 36.596426H54.844644C34.646617 896 18.248218 879.601601 18.248218 859.403574v-950.807148c0-20.198028 16.398399-36.596426 36.596426-36.596426h375.963285c20.198028 0 36.596426 16.398399 36.596426 36.596426 0 20.298018-16.398399 36.596426-36.596426 36.596426zM186.231813 660.622986c-20.198028 0-36.596426-16.398399-36.596426-36.596426 0-20.198028 16.398399-36.596426 36.596426-36.596426h538.247437c20.198028 0 36.596426 16.398399 36.596426 36.596426 0 20.198028-16.398399 36.596426-36.596426 36.596426H186.231813zM533.09794 425.145982H191.931257c-20.198028 0-36.596426-16.398399-36.596426-36.596426 0-20.198028 16.398399-36.596426 36.596426-36.596426H532.997949c20.198028 0 36.596426 16.398399 36.596427 36.596426 0 20.298018-16.298408 36.596426-36.496436 36.596426zM434.207597 189.768968H191.931257c-20.198028 0-36.596426-16.398399-36.596426-36.596426 0-20.198028 16.398399-36.596426 36.596426-36.596426h242.27634c20.198028 0 36.596426 16.398399 36.596426 36.596426 0 20.198028-16.398399 36.596426-36.596426 36.596426zM969.055366 130.97471c0 22.297822 15.698467 40.896006 36.696416 45.295576-4.899522 24.397617-13.898643 47.795332-26.497412 69.293233-7.599258-5.099502-16.498389-7.699248-25.597501-7.699248-25.5975 0-46.295479 20.697979-46.295479 46.295479 0 10.698955 3.699639 20.997949 10.498975 29.297139-25.29753 18.498194-54.694659 31.896885-86.491553 38.496241-3.599648-21.897862-22.697783-38.696221-45.695538-38.696221-22.997754 0-42.195879 16.89835-45.695537 38.896201-31.896885-6.499365-61.394004-19.798067-86.891515-38.19627 6.799336-8.099209 10.898936-18.498194 10.898936-29.79709 0-25.5975-20.697979-46.295479-46.295479-46.295479-9.499072 0-18.698174 2.899717-26.397422 8.29919-12.79875-21.497901-21.797871-45.095596-26.797383-69.593204 21.497901-3.999609 37.796309-22.797774 37.796309-45.495557 0-22.597793-16.198418-41.395957-37.596329-45.495557 5.599453-26.697393 15.898447-52.194903 30.597012-75.092667 6.799336 3.799629 14.498584 5.799434 22.397813 5.699443 25.5975 0 46.295479-20.697979 46.295479-46.295479 0-8.39918-2.199785-16.598379-6.499366-23.697685 24.597598-16.89835 52.694854-29.097158 82.991896-35.196563 4.39957 20.997949 22.997754 36.696416 45.295576 36.696416 22.197832 0 40.696026-15.598477 45.195587-36.496436 30.197051 6.199395 58.194317 18.498194 82.691924 35.596524-3.999609 6.799336-6.199395 14.698565-6.199394 23.197735 0 25.5975 20.697979 46.295479 46.295479 46.295479 7.499268 0 14.898545-1.799824 21.4979-5.299483 14.598574 22.897764 24.897569 48.295284 30.397032 74.892686-20.997949 4.29958-36.596426 22.897764-36.596426 45.095597z m-183.982033-98.390392c-54.594668 0-98.790353 44.295674-98.790353 98.790352 0 54.594668 44.295674 98.790353 98.790353 98.790353 54.594668 0 98.790353-44.295674 98.790352-98.790353s-44.195684-98.790353-98.790352-98.790352z"  horiz-adv-x="1024" />

    
    <glyph glyph-name="daohang-anquanguanli" unicode="&#58923;" d="M920.889578 821.101909L519.799801 895.400015c-4.399888 0.79998-8.899773 0.79998-13.299661 0L103.110422 821.101909c-17.399557-3.199918-29.999235-18.299534-29.999235-35.999082v-475.387884c0-74.998088 23.599398-144.996304 70.19821-208.294691 36.199077-49.198746 86.197803-93.997604 148.596213-133.396599 104.397339-65.798323 207.494711-93.697612 211.794602-94.797584 6.199842-1.699957 12.799674-1.599959 19.099513 0.099997 4.29989 1.199969 106.797278 29.599246 210.594632 95.697561 62.098417 39.498993 111.79715 84.397849 147.696236 133.496597 46.29882 63.098392 69.798221 132.796615 69.79822 207.294717V785.102827c0 17.699549-12.599679 32.799164-29.999235 35.999082z m-43.198899-511.386966c0-107.09727-61.298438-200.694885-182.195356-278.092911-50.698708-32.499172-110.597181-60.498458-179.495425-83.897862-1.899952-0.599985-3.999898-0.599985-5.89985 0-242.493819 82.79789-363.790728 203.394816-363.790727 361.990773V747.103795c0 4.399888 3.199918 8.199791 7.499809 8.999771L511.500013 822.001886c1.099972 0.199995 2.199944 0.199995 3.299916 0l355.490939-65.798323c4.29989-0.79998 7.499809-4.599883 7.499809-8.99977v-437.48885zM697.095282 520.209578L443.801738 322.314622 330.004639 411.212356c-15.899595 12.399684-38.899009 9.599755-51.298693-6.299839-12.399684-15.899595-9.599755-38.899009 6.29984-51.298693l135.996533-106.197293c5.399862-4.29989 11.999694-6.899824 18.799521-7.599806 9.199766-1.099972 18.899518 1.299967 26.799317 7.499809l275.592976 215.294512c15.899595 12.399684 18.699523 35.399098 6.299839 51.298693-12.499681 15.999592-35.499095 18.799521-51.39869 6.299839z"  horiz-adv-x="1024" />

    
    <glyph glyph-name="daoru" unicode="&#58920;" d="M616.9 503.9v-87h145.7L504.2 183.1 246 416.9h145.7v87S427.2 896 902.2 896c-0.1 0-285.3-90.1-285.3-392.1zM899.9-128H124.1C55.7-128 0-72.3 0-3.9V384c0 25.7 20.8 46.5 46.5 46.5S93 409.7 93 384v-387.9c0-17.1 13.9-31 31-31h775.8c17.1 0 31 13.9 31 31V384c0 25.7 20.8 46.5 46.5 46.5s46.5-20.8 46.5-46.5v-387.9c0.2-68.4-55.5-124.1-123.9-124.1z"  horiz-adv-x="1024" />

    
    <glyph glyph-name="shangjia" unicode="&#58915;" d="M341.5 549.2L472.8 706v-560.5c0-21.7 17.8-39.3 39.8-39.3 22 0 39.8 17.6 39.8 39.3v559l130.1-155.2c15.6-15.5 40.9-15.5 56.5 0 15.6 15.4 15.6 40.5 0 55.9L542.3 840c-8.3 8.2-19.4 11.8-30.3 11.2-10.9 0.6-21.9-2.9-30.3-11.2L284.9 605.1c-15.6-15.5-15.6-40.5 0-55.9 15.6-15.5 40.9-15.5 56.6 0zM984.2 364c-22 0-39.8-17.5-39.8-39.2v-329.6H79.6V324.8c0 21.7-17.8 39.2-39.8 39.2-22 0-39.8-17.5-39.8-39.2V-44c0-21.6 17.8-39.2 39.8-39.2h944.4c22 0 39.8 17.5 39.8 39.2V324.8c0 21.7-17.8 39.2-39.8 39.2z"  horiz-adv-x="1024" />

    
    <glyph glyph-name="xiajia" unicode="&#58914;" d="M341.5 408.2l131.3-156.7V812c0 21.7 17.8 39.3 39.8 39.3 22 0 39.8-17.6 39.8-39.3v-559l130.1 155.2c15.6 15.5 40.9 15.5 56.5 0 15.6-15.4 15.6-40.5 0-55.9L542.3 117.4c-8.3-8.2-19.4-11.8-30.3-11.2-10.9-0.6-21.9 2.9-30.3 11.2L284.9 352.3c-15.6 15.5-15.6 40.5 0 55.9 15.6 15.5 40.9 15.5 56.6 0zM984.2 364c-22 0-39.8-17.5-39.8-39.2v-329.6H79.6V324.8c0 21.7-17.8 39.2-39.8 39.2-22 0-39.8-17.5-39.8-39.2V-44c0-21.6 17.8-39.2 39.8-39.2h944.4c22 0 39.8 17.5 39.8 39.2V324.8c0 21.7-17.8 39.2-39.8 39.2z"  horiz-adv-x="1024" />

    
    <glyph glyph-name="qianwang" unicode="&#58913;" d="M1010.1 417.6L629.2 798.5c-18.5 18.5-48.6 18.5-67.1 0-18.5-18.5-18.5-48.6 0-67.1l301.6-301.6H45.8C20.5 429.8 0 409.3 0 384s20.5-45.8 45.8-45.8h817.9L562.1 36.7c-18.5-18.5-18.5-48.6 0-67.1 9.3-9.3 21.4-13.9 33.6-13.9s24.3 4.6 33.6 13.9l380.9 380.9c8.9 8.9 13.9 21 13.9 33.6-0.1 12.5-5.1 24.6-14 33.5z"  horiz-adv-x="1024" />

    
    <glyph glyph-name="fabu" unicode="&#58911;" d="M1002.87314 891.268803c-11.696977 6.798243-24.593644 5.798501-36.290621 0-8.39783-4.198915-16.895634-8.39783-25.293463-12.596745-22.994057-11.397055-45.988115-22.894083-68.982173-34.291138-33.991215-16.895634-67.982431-33.791267-101.973646-50.786874-41.289329-20.594678-82.578659-41.089381-123.967962-61.684059-45.288296-22.494187-90.476617-45.088347-135.764913-67.582534-45.788167-22.794109-91.676307-45.588218-137.464474-68.482302-42.688968-21.294497-85.477909-42.489019-128.166877-63.783516-36.090673-17.995349-72.181346-35.890724-108.272019-53.886073-25.893308-12.896667-51.686642-25.793334-77.57995-38.590027-12.296822-6.098424-24.593644-12.096874-36.790492-18.295272-0.499871-0.299922-1.099716-0.499871-1.599587-0.799794-23.993799-11.9969-22.894083-49.887107 0-62.183929l89.07698-47.687676c46.987857-25.093515 93.875739-50.18703 140.863595-75.380518 10.79721-5.798501 21.494445-11.497029 32.291655-17.295531 16.595711-8.897701 39.889691-4.698786 49.287262 12.896667 8.797726 16.695685 4.79876 39.789717-12.896667 49.287263l-89.076979 47.687675c-37.690259 20.094807-75.280545 40.289588-112.970804 60.384395 11.397055 5.698527 22.694135 11.29708 34.091189 16.995608 33.991215 16.895634 67.982431 33.791267 101.973647 50.786874 41.289329 20.594678 82.578659 41.089381 123.967962 61.684059 45.288296 22.494187 90.476617 45.088347 135.764913 67.582534 45.788167 22.794109 91.676307 45.588218 137.464474 68.482302 42.688968 21.294497 85.477909 42.489019 128.166877 63.783516 22.794109 11.397055 45.688192 22.694135 68.482301 34.091189-7.797985-9.197623-15.595969-18.49522-23.393954-27.692843-30.192197-35.79075-60.28442-71.481526-90.476617-107.272277-33.791267-39.989665-67.48256-80.079305-101.273827-120.06897-32.991474-39.089898-65.982948-78.27977-98.974422-117.369667-27.092998-32.091706-54.185996-64.283387-81.278994-96.375093l-50.386978-59.684575c-2.899251-3.499096-5.898476-6.998191-8.797727-10.497287-6.398346-7.698011-10.497287-15.296047-10.797209-25.793334V-91.97709c0-18.795143 16.595711-36.890466 35.990699-35.990698 19.494962 0.899767 35.990699 15.795918 35.990698 35.990698v94.675533 149.661322 21.494445c1.099716 1.399638 2.299406 2.699302 3.399122 4.09894 12.596745 14.89615 25.193489 29.892275 37.790233 44.788425 18.695168 22.194264 37.390337 44.388528 56.085506 66.482819 22.794109 27.092998 45.688192 54.086022 68.482301 81.17902 24.893567 29.492378 49.787133 59.08473 74.6807 88.577108 25.193489 29.892275 50.486952 59.884524 75.680441 89.776799 23.393954 27.792817 46.887882 55.585635 70.281837 83.378451L899.899752 702.91748c11.29708 13.296564 22.494187 26.693102 33.791267 39.989665-3.099199-23.993799-6.198398-47.887624-9.297597-71.881423-5.198656-39.989665-10.297339-79.97933-15.495995-119.968996-5.698527-43.788683-11.29708-87.577367-16.995608-131.36605-5.698527-44.18858-11.397055-88.477134-17.095582-132.665714-5.298631-41.189355-10.597261-82.478684-15.995866-123.66804-4.498837-34.890983-8.997675-69.681992-13.496512-104.572974-2.39938-18.695168-4.79876-37.490311-7.298114-56.18548-17.495479 9.397571-34.990957 18.695168-52.486435 28.09274-52.386461 27.992766-104.772923 56.085505-157.159384 84.078271-11.9969 6.398346-23.893825 12.796693-35.890725 19.19504-16.595711 8.897701-39.889691 4.698786-49.287262-12.896667-8.797726-16.695685-4.79876-39.789717 12.896667-49.287263 33.091448-17.695427 66.28287-35.490828 99.374318-53.186254 52.386461-27.992766 104.772923-56.085505 157.159384-84.078271 11.9969-6.398346 23.893825-12.796693 35.890724-19.19504 11.497029-6.098424 24.893567-6.698269 36.290622 0 5.398605 3.199173 9.697494 7.498062 12.896667 12.896667 3.299147 5.598553 4.898734 11.696977 4.898734 18.195298 1.099716 8.097907 2.099457 16.295789 3.199173 24.393696 2.899251 22.194264 5.698527 44.288554 8.597778 66.482818 4.198915 32.791525 8.497804 65.583051 12.696718 98.274602 5.198656 39.989665 10.297339 79.97933 15.495996 119.968996 5.698527 43.788683 11.29708 87.577367 16.995607 131.36605 5.698527 44.18858 11.397055 88.477134 17.095582 132.665714 5.298631 41.189355 10.597261 82.478684 15.995866 123.668039 4.498837 34.890983 8.997675 69.681992 13.496512 104.572975 3.199173 25.093515 6.498321 50.087056 9.697494 75.18057 1.499612 11.896925 3.299147 23.693877 4.598812 35.590802 0.099974 0.499871 0.099974 0.999742 0.199948 1.499613 1.599587 12.296822-7.997933 25.393437-17.795401 31.191939z"  horiz-adv-x="1024" />

    
    <glyph glyph-name="shanchu" unicode="&#58910;" d="M402.360707 530.335709c-21.897862 0-36.596426-14.598574-36.596426-36.596426V128.074993c0-21.897862 14.598574-36.596426 36.596426-36.596426 21.897862 0 36.596426 14.598574 36.596426 36.596426V493.739283c0 21.997852-14.698565 36.596426-36.596426 36.596426zM987.403574 749.714286h-255.975003v36.596426C731.428571 848.504638 683.93321 896 621.739283 896H402.360707c-62.193926 0-109.689288-47.495362-109.689288-109.689288v-36.596426h-255.975003c-21.997852 0-36.596426-14.598574-36.596426-36.596426s14.598574-36.596426 36.596426-36.596427h73.092862v-694.832145c0-62.193926 47.495362-109.689288 109.689289-109.689288h585.042866c62.193926 0 109.689288 47.495362 109.689289 109.689288v694.932136h73.192852c21.897862 0 36.596426 14.598574 36.596426 36.596426s-14.598574 36.496436-36.596426 36.496436z m-621.639293 36.596426c0 21.897862 14.598574 36.596426 36.596426 36.596426h219.378576c21.897862 0 36.596426-14.598574 36.596426-36.596426v-36.596426H365.764281v36.596426z m475.353579-804.521434c0-21.897862-14.598574-36.596426-36.596427-36.596426H219.478567c-21.897862 0-36.596426 14.598574-36.596427 36.596426V676.621424h658.23572v-694.832146zM621.739283 530.335709c-21.897862 0-36.596426-14.598574-36.596426-36.596426V128.074993c0-21.897862 14.598574-36.596426 36.596426-36.596426 21.897862 0 36.596426 14.598574 36.596426 36.596426V493.739283c0 21.997852-14.598574 36.596426-36.596426 36.596426z"  horiz-adv-x="1024" />

    
    <glyph glyph-name="shangchuan" unicode="&#58909;" d="M37.4-127.3C16.1-124.6 0.1-106.4 0.1-84.9s16 39.7 37.3 42.4h949.3c21.3-2.7 37.3-20.9 37.3-42.4s-16-39.7-37.3-42.4H37.4zM554.8 754.2v-655c-2.7-21.3-20.9-37.3-42.4-37.3s-39.7 16-42.4 37.3v655L146.6 430.7c-10.7-10.7-26.2-14.8-40.8-10.9-14.6 3.9-25.9 15.3-29.8 29.8-3.9 14.6 0.3 30.1 10.9 40.8L477.5 881.6c18.9 18.3 48.9 18.3 67.8 0L935.9 491c16.5-16.5 16.5-43.2 0-59.7s-43.2-16.5-59.7 0L554.8 754.2z"  horiz-adv-x="1024" />

    
    <glyph glyph-name="xiazai" unicode="&#58908;" d="M37.4-127.3C16.1-124.6 0.1-106.4 0.1-84.9s16 39.7 37.3 42.4h949.3c21.3-2.7 37.3-20.9 37.3-42.4s-16-39.7-37.3-42.4H37.4zM554.8 203V858C552.1 879.3 534 895.3 512.4 895.3c-21.5 0-39.7-16-42.4-37.3v-655L146.6 526.4c-10.7 10.7-26.2 14.8-40.8 10.9-14.6-3.9-25.9-15.3-29.8-29.8-3.9-14.6 0.3-30.1 10.9-40.8l390.6-391.3c18.9-18.3 48.9-18.3 67.8 0L935.9 466c16.5 16.5 16.5 43.2 0 59.7s-43.2 16.5-59.7 0L554.8 203z"  horiz-adv-x="1024" />

    
    <glyph glyph-name="gongjuxiang" unicode="&#58907;" d="M722.9 700.2V820.7c0.9 28.7-33.1 60.2-60.2 60.2H331.4c-27.8 0-60.2-30.4-60.2-60.2v-120.5H90.5c-45 0-90.4-48-90.4-90.3v-150.6h1024V609.9c0 44.8-45.6 90.3-90.3 90.3H722.9z m-90.3 0H361.5v60.2c0 18.3 11.9 30.1 30.1 30.1h210.8c18.2 0 30.1-11.8 30.1-30.1v-60.2zM510.9 279.7c59.3 0 61.4 72.9 61.4 119.4H421.7c1-37.4 1.2-120.5 60.2-120.5 0.1 0 16.6 1.1 29 1.1z m121.7 119.4s47.7-180.7-135.5-180.7c-189.2 0-135.5 180.7-135.5 180.7H0.1v-421.6c0-46.3 40.6-90.4 90.3-90.4h843.3c45.2 0 90.3 39 90.3 90.4V399.1H632.6z m0 0"  horiz-adv-x="1024" />

    
    <glyph glyph-name="huifuzhongzhi" unicode="&#58906;" d="M996 753l-68.8-53.8C833.5 819.1 687.7 896 524 896 241.3 896 12.5 667.4 12.1 384.6 11.8 101.5 241.1-128 524-128c221 0 409.4 140.2 481 336.6 1.8 5.1-0.9 10.8-6 12.6l-69 23.7c-5 1.7-10.5-0.9-12.3-5.9-2.2-6.1-4.6-12.2-7.2-18.2-21.1-50-51.3-94.8-89.8-133.4-38.5-38.5-83.4-68.8-133.2-90-51.6-21.8-106.5-32.9-163.1-32.9-56.7 0-111.5 11.1-163.1 32.9-49.9 21.1-94.7 51.3-133.2 90-38.5 38.5-68.8 83.4-89.8 133.4-21.8 51.7-32.9 106.5-32.9 163.2s11.1 111.5 32.9 163.2c21.1 50 51.3 94.8 89.8 133.4 38.5 38.5 83.4 68.8 133.2 90 51.6 21.8 106.5 32.9 163.1 32.9 56.7 0 111.5-11.1 163.1-32.9 49.9-21.1 94.7-51.3 133.2-90 12.1-12.1 23.4-24.9 33.9-38.3L781.2 585c-6.5-5-4.3-15.2 3.7-17.2L999 515.4c6.1-1.5 12.1 3.2 12.1 9.4l1 220.5c-0.4 8.2-9.7 12.7-16.1 7.7z"  horiz-adv-x="1024" />

    
    <glyph glyph-name="tijiaobaocun" unicode="&#58905;" d="M942.82224 817.9C739.12224 562.9 535.42224 308 331.72224 53c-82.1 72.3-164.1 144.6-246.2 216.9-47.4 41.7-117.2-27.6-69.6-69.6 95.7-84.3 191.4-168.6 287-252.8 18.2-16.1 52.2-21.8 69.6 0 213.3 266.9 426.6 533.9 639.9 800.9 39.1 48.9-30 119-69.6 69.5z"  horiz-adv-x="1024" />

    
    <glyph glyph-name="bianjixiugai" unicode="&#58904;" d="M575.3 819.9L69.6 265.6 56.2 12.3l275.1 64.6L837 631.2c27.7 30.2 25.2 81.3-5 109.9L708.7 851.8c-30.2 27.6-81.4 25.1-133.4-31.9z m187.9-177.8l-87.2-88-137.6 125.7 79.7 87.2c21 22.6 57 24.3 87.2 4.2l46.1-41.9c30.2-20.9 31.9-64.5 11.8-87.2zM147.6 251.3l348.9 382.4 137.5-125-338-370.6-168.6-45.3 20.2 158.5z m838.7-352.2H36.9C15.1-100.9 0-86.7 0-64c0 21.8 14.3 36.9 36.9 36.9h950.2c21.8 0 36.9-14.3 36.9-36.9-0.8-21.8-15.1-36.9-37.7-36.9z m0 0"  horiz-adv-x="1024" />

    
    <glyph glyph-name="xinjian" unicode="&#58903;" d="M1024 306.2H587.3V-128H434.2V306.2H0V461.8h434.2V896h153.1v-434.2H1024v-155.6z"  horiz-adv-x="1024" />

    
    <glyph glyph-name="baohuditixiyingyong-chengyuanguanli-fuxuan" unicode="&#58902;" d="M357.68579 790.5h620.6c30.5 0 45.8-15.3 45.8-45.8v0.1c0-30.5-15.3-45.8-45.8-45.8H357.68579c-30.5 0-45.8 15.3-45.8 45.8v-0.1c0 30.5 15.3 45.8 45.8 45.8zM357.68579 418h620.6c30.5 0 45.8-15.3 45.8-45.8v0.1c0-30.5-15.3-45.8-45.8-45.8H357.68579c-30.5 0-45.8 15.3-45.8 45.8v-0.1c0 30.6 15.3 45.8 45.8 45.8zM357.68579 45.5h620.6c30.5 0 45.8-15.3 45.8-45.8v0.1c0-30.5-15.3-45.8-45.8-45.8H357.68579c-30.5 0-45.8 15.3-45.8 45.8v-0.1c0 30.5 15.3 45.8 45.8 45.8zM276.08579 843.4c-6.2 6.2-14.6 9.7-23.4 9.8-8.8 0-17.2-3.5-23.4-9.8L112.78579 726.7l-56.2 56.7c-6.2 6.2-14.6 9.7-23.4 9.8-13.4 0-25.4-8.1-30.5-20.5-5.1-12.4-2.3-26.6 7.1-36.1l79.8-80.2c6.1-6.2 14.5-9.6 23.1-9.6 8.8 0 17.2 3.5 23.3 9.8L276.08579 796.7c12.7 13 12.7 33.7 0 46.7zM276.08579 465.3c-6.2 6.2-14.6 9.7-23.4 9.6-8.8 0-17.2-3.4-23.4-9.6L112.78579 348.7l-56.2 56.7c-6.2 6.3-14.6 9.8-23.4 9.9-13.4 0-25.5-8.1-30.7-20.5-5.1-12.4-2.2-26.7 7.3-36.2l79.8-80.1c6.2-6.2 14.6-9.8 23.3-9.8 8.8 0 17.2 3.5 23.3 9.8L276.08579 418.8c12.6 13 12.6 33.6 0 46.5zM276.08579 111.5c-6.2 6.2-14.6 9.7-23.4 9.8-8.8 0-17.2-3.5-23.4-9.8L112.78579-5.2l-56.2 56.7c-6.2 6.2-14.6 9.7-23.4 9.6-8.8 0-17.2-3.4-23.4-9.6-12.9-12.9-12.9-33.9 0-46.8l79.8-80.2c12.9-12.9 33.8-12.9 46.7 0L276.08579 65c12.6 13 12.6 33.6 0 46.5z"  horiz-adv-x="1024" />

    
    <glyph glyph-name="wuzhongshujuku-tiaozhuan" unicode="&#58901;" d="M846.4-128H0V718.4h423.2v-74H74V-54h698.4V295.2h74zM569.6 804.2L1024 896l-91.8-454.4-144.9 144.9-394.2-394.3-72.9 72.8 394.3 394.3z"  horiz-adv-x="1024" />

    


  </font>
</defs>
</svg>
